<?xml version="1.0" encoding="UTF-8" standalone="no"?>
<!DOCTYPE svg PUBLIC "-//W3C//DTD SVG 20010904//EN"
              "http://www.w3.org/TR/2001/REC-SVG-20010904/DTD/svg10.dtd">

<svg xmlns="http://www.w3.org/2000/svg"
     width="22.8229in" height="14.1042in"
     viewBox="0 0 2191 1354">
  <path id="Selection #4"
        fill="none" stroke="black" stroke-width="1"
        d="M 1019.95,888.66
           C 1024.66,889.15 1025.37,893.10 1027.82,897.00
             1031.10,902.21 1039.55,921.20 1041.12,927.00
             1044.09,938.01 1048.23,948.61 1049.71,960.00
             1050.64,967.16 1049.31,969.79 1049.02,976.00
             1049.02,976.00 1049.02,987.00 1049.02,987.00
             1049.02,987.00 1047.00,1016.00 1047.00,1016.00
             1046.96,1024.32 1040.67,1043.38 1036.82,1051.00
             1033.25,1058.05 1030.15,1057.78 1023.00,1058.72
             1011.06,1060.29 994.99,1062.15 985.30,1069.55
             983.34,1071.04 981.67,1072.83 980.64,1075.09
             978.90,1078.86 977.53,1090.30 981.43,1092.98
             983.81,1094.62 995.54,1094.01 999.00,1094.00
             999.00,1094.00 1025.00,1091.02 1025.00,1091.02
             1034.60,1091.42 1031.20,1099.74 1029.87,1109.00
             1028.38,1119.38 1025.05,1129.42 1025.00,1140.00
             1025.00,1140.00 1025.00,1171.00 1025.00,1171.00
             1025.10,1179.24 1027.39,1183.36 1029.25,1191.00
             1030.28,1195.23 1029.98,1197.50 1031.71,1201.99
             1034.08,1208.13 1039.06,1210.88 1038.97,1224.00
             1038.92,1232.36 1033.22,1235.53 1028.29,1241.32
             1024.46,1245.83 1019.56,1253.74 1016.66,1259.00
             1006.43,1277.58 1008.62,1296.01 1003.11,1316.00
             1002.22,1319.24 997.23,1331.37 994.70,1332.98
             992.76,1334.21 989.26,1334.00 987.00,1334.00
             987.00,1334.00 980.00,1334.00 980.00,1334.00
             954.07,1333.69 931.83,1315.70 906.00,1316.00
             899.22,1316.08 892.24,1317.83 886.00,1320.46
             880.16,1322.93 878.74,1325.76 872.00,1325.98
             855.03,1326.54 849.34,1314.65 837.00,1312.55
             830.76,1311.49 824.84,1314.92 819.00,1316.39
             815.54,1317.27 807.86,1317.04 804.00,1317.00
             797.52,1316.92 785.07,1314.41 779.00,1312.19
             779.00,1312.19 769.00,1307.82 769.00,1307.82
             769.00,1307.82 760.00,1305.05 760.00,1305.05
             760.00,1305.05 750.00,1300.63 750.00,1300.63
             743.86,1298.82 734.47,1298.93 728.00,1299.00
             724.45,1299.05 713.12,1300.18 710.00,1301.25
             710.00,1301.25 699.00,1306.91 699.00,1306.91
             690.55,1310.40 679.14,1312.89 670.00,1313.00
             662.03,1313.09 655.37,1312.74 648.00,1309.18
             638.26,1304.48 634.64,1299.63 629.00,1296.21
             629.00,1296.21 611.00,1286.48 611.00,1286.48
             611.00,1286.48 595.00,1272.53 595.00,1272.53
             589.09,1269.35 577.69,1265.78 571.00,1266.04
             571.00,1266.04 547.00,1270.00 547.00,1270.00
             537.51,1270.11 522.67,1270.46 514.00,1266.80
             506.20,1263.51 487.57,1247.48 479.00,1241.42
             466.94,1232.89 458.68,1229.99 447.88,1218.41
             441.08,1211.11 434.95,1203.40 429.54,1195.00
             422.83,1184.60 416.71,1173.45 405.00,1167.82
             396.10,1163.55 379.93,1163.89 370.00,1164.00
             346.32,1164.28 329.63,1175.07 303.00,1172.05
             297.98,1171.48 291.49,1170.22 287.01,1167.86
             267.65,1157.67 261.62,1121.46 251.21,1107.00
             240.19,1091.69 216.45,1088.85 206.35,1076.82
             197.14,1065.84 203.20,1050.02 214.00,1042.70
             222.41,1036.99 231.19,1035.89 241.00,1036.00
             254.83,1036.17 272.23,1048.72 281.57,1058.29
             281.57,1058.29 291.87,1070.96 291.87,1070.96
             291.87,1070.96 300.90,1082.00 300.90,1082.00
             300.90,1082.00 308.21,1094.96 308.21,1094.96
             316.40,1106.76 326.03,1114.11 338.00,1121.53
             341.47,1123.68 342.99,1124.98 347.00,1126.46
             355.58,1129.62 362.06,1129.96 371.00,1130.00
             371.00,1130.00 382.00,1130.97 382.00,1130.97
             382.00,1130.97 397.00,1130.97 397.00,1130.97
             397.00,1130.97 424.00,1130.97 424.00,1130.97
             424.00,1130.97 436.00,1132.10 436.00,1132.10
             436.00,1132.10 446.00,1132.10 446.00,1132.10
             446.00,1132.10 466.00,1135.51 466.00,1135.51
             466.00,1135.51 478.00,1138.74 478.00,1138.74
             478.00,1138.74 501.00,1141.43 501.00,1141.43
             501.00,1141.43 520.00,1144.00 520.00,1144.00
             525.79,1144.06 534.81,1143.93 540.00,1141.31
             545.10,1138.75 549.99,1131.83 554.10,1127.51
             554.10,1127.51 582.04,1100.21 582.04,1100.21
             582.04,1100.21 603.00,1084.90 603.00,1084.90
             603.00,1084.90 612.00,1079.22 612.00,1079.22
             620.28,1073.26 636.63,1057.90 642.66,1049.72
             646.73,1044.19 647.17,1040.62 650.34,1035.00
             650.34,1035.00 666.04,1011.00 666.04,1011.00
             666.04,1011.00 683.45,987.00 683.45,987.00
             683.45,987.00 710.24,954.00 710.24,954.00
             710.24,954.00 720.83,937.00 720.83,937.00
             724.46,930.21 726.49,923.06 731.67,917.17
             736.01,912.24 740.23,910.32 746.00,907.70
             757.89,902.30 777.92,898.02 791.00,898.00
             791.00,898.00 818.00,898.00 818.00,898.00
             818.00,898.00 855.00,901.84 855.00,901.84
             855.00,901.84 875.00,903.17 875.00,903.17
             893.48,904.94 890.48,907.27 914.00,907.00
             914.00,907.00 938.00,905.00 938.00,905.00
             938.00,905.00 968.00,902.94 968.00,902.94
             968.00,902.94 978.00,902.94 978.00,902.94
             978.00,902.94 1019.95,888.66 1019.95,888.66 Z" />
</svg>
