<?xml version="1.0" encoding="UTF-8" standalone="no"?>
<!DOCTYPE svg PUBLIC "-//W3C//DTD SVG 20010904//EN"
              "http://www.w3.org/TR/2001/REC-SVG-20010904/DTD/svg10.dtd">

<svg xmlns="http://www.w3.org/2000/svg"
     width="22.8229in" height="14.1042in"
     viewBox="0 0 2191 1354">
  <path id="Selection"
        fill="none" stroke="black" stroke-width="1"
        d="M 1610.00,1239.00
           C 1610.00,1239.00 1610.00,1228.00 1610.00,1228.00
             1610.00,1228.00 1611.91,1212.00 1611.91,1212.00
             1611.91,1212.00 1611.91,1200.00 1611.91,1200.00
             1611.91,1200.00 1610.00,1180.00 1610.00,1180.00
             1610.00,1180.00 1610.00,1121.00 1610.00,1121.00
             1609.99,1112.18 1607.68,1103.70 1606.43,1095.00
             1605.19,1086.37 1604.99,1077.71 1605.00,1069.00
             1605.00,1069.00 1610.76,1028.00 1610.76,1028.00
             1610.76,1028.00 1615.71,1013.00 1615.71,1013.00
             1615.71,1013.00 1620.10,1004.00 1620.10,1004.00
             1620.10,1004.00 1625.39,991.00 1625.39,991.00
             1625.39,991.00 1631.09,972.00 1631.09,972.00
             1631.09,972.00 1636.80,960.00 1636.80,960.00
             1636.80,960.00 1641.78,945.00 1641.78,945.00
             1641.78,945.00 1649.45,919.00 1649.45,919.00
             1649.98,916.44 1651.78,908.47 1653.72,906.91
             1655.77,905.45 1659.61,906.64 1662.00,906.91
             1670.91,907.51 1674.82,900.47 1677.00,893.00
             1677.51,891.25 1678.57,887.73 1678.56,886.00
             1678.47,878.30 1669.81,880.81 1669.06,872.00
             1669.06,872.00 1671.00,847.00 1671.00,847.00
             1671.00,847.00 1670.09,828.00 1670.09,828.00
             1670.09,828.00 1672.06,814.00 1672.06,814.00
             1672.06,814.00 1672.06,806.00 1672.06,806.00
             1672.99,800.59 1673.92,799.14 1674.00,793.00
             1674.00,793.00 1675.96,770.00 1675.96,770.00
             1676.12,766.44 1675.59,761.23 1678.51,758.60
             1681.97,755.47 1694.10,757.97 1699.00,758.00
             1699.00,758.00 1738.00,761.44 1738.00,761.44
             1747.19,762.92 1755.57,764.99 1765.00,765.00
             1765.00,765.00 1812.00,767.00 1812.00,767.00
             1827.13,766.98 1842.21,763.13 1857.00,760.46
             1857.00,760.46 1865.00,759.22 1865.00,759.22
             1865.00,759.22 1903.00,748.42 1903.00,748.42
             1903.00,748.42 1923.00,743.80 1923.00,743.80
             1936.12,741.29 1949.41,739.67 1962.00,734.80
             1974.41,729.99 1997.39,721.92 2010.00,719.40
             2018.44,717.71 2027.19,717.00 2033.58,724.21
             2041.45,733.08 2032.76,735.70 2031.35,743.00
             2030.22,748.84 2033.66,752.32 2030.52,760.00
             2028.06,766.02 2022.43,770.29 2018.09,775.00
             2014.15,779.29 2011.96,783.09 2009.00,788.00
             2009.00,788.00 2021.00,792.32 2021.00,792.32
             2021.00,792.32 2034.00,793.32 2034.00,793.32
             2034.00,793.32 2053.00,798.90 2053.00,798.90
             2053.00,798.90 2071.00,808.73 2071.00,808.73
             2071.00,808.73 2104.00,824.63 2104.00,824.63
             2104.00,824.63 2117.00,833.78 2117.00,833.78
             2126.55,840.25 2133.95,840.99 2143.54,852.03
             2157.11,867.67 2157.93,881.29 2163.57,900.00
             2163.57,900.00 2176.85,942.00 2176.85,942.00
             2176.85,942.00 2176.85,951.00 2176.85,951.00
             2176.91,958.22 2173.64,967.06 2171.33,974.00
             2168.33,983.05 2166.59,990.40 2161.82,999.00
             2161.82,999.00 2147.66,1020.00 2147.66,1020.00
             2147.66,1020.00 2138.46,1030.00 2138.46,1030.00
             2138.46,1030.00 2120.70,1052.54 2120.70,1052.54
             2115.53,1057.48 2104.71,1063.69 2098.00,1066.40
             2098.00,1066.40 2082.00,1071.73 2082.00,1071.73
             2071.91,1075.77 2058.42,1082.12 2048.00,1084.33
             2048.00,1084.33 2038.00,1085.61 2038.00,1085.61
             2031.26,1086.80 2024.91,1088.14 2018.00,1087.99
             2018.00,1087.99 2001.00,1085.29 2001.00,1085.29
             1989.54,1083.78 1980.33,1082.73 1969.00,1079.65
             1963.58,1078.17 1954.10,1072.09 1949.00,1069.17
             1949.00,1069.17 1920.00,1054.70 1920.00,1054.70
             1916.95,1053.10 1905.03,1046.16 1902.33,1047.24
             1899.60,1048.34 1897.26,1054.42 1895.83,1057.00
             1895.83,1057.00 1880.77,1082.00 1880.77,1082.00
             1880.77,1082.00 1853.43,1118.00 1853.43,1118.00
             1841.94,1134.01 1835.12,1146.78 1819.91,1160.56
             1819.91,1160.56 1802.00,1175.25 1802.00,1175.25
             1802.00,1175.25 1789.09,1183.95 1789.09,1183.95
             1789.09,1183.95 1780.99,1190.91 1780.99,1190.91
             1774.84,1195.19 1759.18,1202.87 1752.00,1205.81
             1737.85,1211.60 1716.20,1216.07 1701.00,1219.42
             1701.00,1219.42 1681.00,1224.15 1681.00,1224.15
             1681.00,1224.15 1670.00,1227.34 1670.00,1227.34
             1670.00,1227.34 1655.00,1229.90 1655.00,1229.90
             1655.00,1229.90 1639.00,1234.33 1639.00,1234.33
             1639.00,1234.33 1610.00,1239.00 1610.00,1239.00 Z" />
</svg>
