<?xml version="1.0" encoding="UTF-8" standalone="no"?>
<!DOCTYPE svg PUBLIC "-//W3C//DTD SVG 20010904//EN"
              "http://www.w3.org/TR/2001/REC-SVG-20010904/DTD/svg10.dtd">

<svg xmlns="http://www.w3.org/2000/svg"
     width="22.8229in" height="14.1042in"
     viewBox="0 0 2191 1354">
  <path id="Selection #1"
        fill="none" stroke="black" stroke-width="1"
        d="M 1411.00,919.00
           C 1411.00,919.00 1391.00,919.99 1391.00,919.99
             1384.03,919.83 1368.74,917.34 1363.29,913.15
             1354.05,906.05 1355.43,891.45 1364.04,884.53
             1368.61,880.87 1371.50,881.01 1377.00,881.08
             1377.00,881.08 1389.00,881.08 1389.00,881.08
             1389.00,881.08 1405.00,883.00 1405.00,883.00
             1410.64,883.06 1416.16,883.33 1420.74,879.36
             1424.16,876.39 1425.97,870.26 1427.28,866.00
             1427.28,866.00 1435.47,835.00 1435.47,835.00
             1440.51,814.75 1447.64,758.66 1450.17,736.00
             1451.06,728.03 1455.44,712.86 1463.00,709.02
             1465.40,707.81 1468.38,708.01 1471.00,708.00
             1471.00,708.00 1491.00,708.00 1491.00,708.00
             1501.62,708.13 1504.14,711.92 1513.00,715.77
             1522.73,720.00 1532.74,723.19 1543.00,725.85
             1554.17,728.74 1566.54,728.98 1578.00,729.00
             1578.00,729.00 1606.00,732.51 1606.00,732.51
             1606.00,732.51 1634.00,738.91 1634.00,738.91
             1634.00,738.91 1660.00,746.33 1660.00,746.33
             1660.00,746.33 1674.00,748.46 1674.00,748.46
             1682.35,750.12 1683.37,752.88 1693.00,753.00
             1693.00,753.00 1684.46,795.00 1684.46,795.00
             1684.46,795.00 1680.48,823.00 1680.48,823.00
             1679.35,827.32 1677.65,829.03 1676.69,832.00
             1676.69,832.00 1675.54,844.00 1675.54,844.00
             1675.54,844.00 1671.06,868.00 1671.06,868.00
             1671.05,875.12 1674.86,874.99 1677.99,880.04
             1679.87,883.07 1679.95,885.57 1680.00,889.00
             1680.08,895.09 1679.83,904.94 1674.66,909.03
             1671.03,911.91 1667.33,911.33 1664.81,914.31
             1664.81,914.31 1655.87,934.00 1655.87,934.00
             1645.13,959.21 1644.75,974.25 1636.92,997.00
             1636.92,997.00 1621.35,1031.00 1621.35,1031.00
             1617.44,1042.76 1617.86,1051.88 1618.00,1064.00
             1618.00,1064.00 1626.00,1130.00 1626.00,1130.00
             1626.00,1130.00 1626.00,1154.00 1626.00,1154.00
             1626.00,1154.00 1624.89,1165.00 1624.89,1165.00
             1624.89,1165.00 1624.89,1176.00 1624.89,1176.00
             1624.89,1176.00 1619.00,1201.00 1619.00,1201.00
             1606.71,1200.96 1601.45,1196.99 1591.00,1191.76
             1584.84,1188.68 1580.84,1187.52 1575.04,1183.08
             1568.41,1178.00 1564.03,1171.56 1556.00,1167.75
             1556.00,1167.75 1546.00,1163.61 1546.00,1163.61
             1546.00,1163.61 1538.00,1162.42 1538.00,1162.42
             1525.67,1160.63 1512.60,1159.32 1501.00,1154.41
             1496.25,1152.40 1478.64,1141.21 1475.09,1137.82
             1470.02,1132.97 1469.88,1129.01 1463.98,1124.95
             1463.98,1124.95 1437.00,1109.93 1437.00,1109.93
             1437.00,1109.93 1429.00,1107.62 1429.00,1107.62
             1421.35,1105.62 1415.66,1102.04 1409.00,1097.96
             1409.00,1097.96 1399.00,1091.96 1399.00,1091.96
             1399.00,1091.96 1363.00,1063.96 1363.00,1063.96
             1360.79,1061.84 1351.28,1052.58 1351.08,1049.91
             1350.86,1046.91 1355.33,1041.38 1357.13,1039.00
             1365.95,1027.35 1368.90,1028.63 1377.55,1014.00
             1384.30,1002.58 1391.85,973.78 1397.42,959.00
             1401.82,947.34 1410.42,930.85 1411.00,919.00 Z" />
</svg>
