<?xml version="1.0" encoding="UTF-8" standalone="no"?>
<!DOCTYPE svg PUBLIC "-//W3C//DTD SVG 20010904//EN"
              "http://www.w3.org/TR/2001/REC-SVG-20010904/DTD/svg10.dtd">

<svg xmlns="http://www.w3.org/2000/svg"
     width="22.8229in" height="14.1042in"
     viewBox="0 0 2191 1354">
  <path id="Selection #8"
        fill="none" stroke="black" stroke-width="1"
        d="M 1500.00,712.00
           C 1500.00,712.00 1519.00,706.94 1519.00,706.94
             1519.00,706.94 1540.00,698.83 1540.00,698.83
             1540.00,698.83 1554.00,691.86 1554.00,691.86
             1566.87,686.13 1580.34,681.22 1592.00,673.10
             1596.52,669.95 1598.48,666.97 1602.07,663.00
             1609.31,655.03 1617.90,644.31 1621.26,634.00
             1625.43,621.18 1625.15,615.13 1625.00,602.00
             1625.00,602.00 1621.00,573.00 1621.00,573.00
             1621.00,573.00 1621.00,542.00 1621.00,542.00
             1621.00,542.00 1620.00,525.00 1620.00,525.00
             1620.00,525.00 1621.00,453.00 1621.00,453.00
             1621.00,453.00 1616.17,425.00 1616.17,425.00
             1614.91,411.85 1614.25,397.87 1611.10,385.00
             1611.10,385.00 1599.90,349.00 1599.90,349.00
             1599.90,349.00 1595.16,330.00 1595.16,330.00
             1595.16,330.00 1588.92,318.00 1588.92,318.00
             1588.92,318.00 1572.67,273.00 1572.67,273.00
             1572.67,273.00 1569.85,261.00 1569.85,261.00
             1569.85,261.00 1558.63,215.00 1558.63,215.00
             1558.63,215.00 1554.10,195.00 1554.10,195.00
             1551.43,183.85 1549.31,177.94 1548.04,166.00
             1548.04,166.00 1548.04,157.00 1548.04,157.00
             1548.04,157.00 1547.00,147.00 1547.00,147.00
             1546.65,116.74 1547.63,107.55 1554.35,78.00
             1556.27,69.57 1559.34,56.88 1567.17,52.08
             1574.13,47.82 1579.79,54.27 1586.00,56.94
             1586.00,56.94 1594.00,59.29 1594.00,59.29
             1594.00,59.29 1611.00,63.68 1611.00,63.68
             1611.00,63.68 1631.00,66.88 1631.00,66.88
             1631.00,66.88 1645.00,70.21 1645.00,70.21
             1645.00,70.21 1658.00,74.49 1658.00,74.49
             1658.00,74.49 1678.00,77.81 1678.00,77.81
             1678.00,77.81 1701.00,83.50 1701.00,83.50
             1701.00,83.50 1718.00,86.52 1718.00,86.52
             1718.00,86.52 1731.00,90.63 1731.00,90.63
             1731.00,90.63 1744.00,92.28 1744.00,92.28
             1744.00,92.28 1778.00,97.51 1778.00,97.51
             1787.14,99.56 1814.59,110.28 1824.00,114.33
             1830.69,117.22 1845.45,125.91 1851.00,130.46
             1851.00,130.46 1867.01,146.00 1867.01,146.00
             1867.01,146.00 1910.00,188.56 1910.00,188.56
             1910.00,188.56 1945.00,217.53 1945.00,217.53
             1945.00,217.53 1990.00,252.17 1990.00,252.17
             1990.00,252.17 2008.00,270.00 2008.00,270.00
             2012.63,274.63 2019.45,281.06 2023.33,286.00
             2032.14,297.20 2037.44,311.66 2042.08,325.00
             2042.08,325.00 2050.96,351.00 2050.96,351.00
             2050.96,351.00 2052.90,360.00 2052.90,360.00
             2052.90,360.00 2056.57,372.00 2056.57,372.00
             2056.57,372.00 2058.77,381.00 2058.77,381.00
             2058.77,381.00 2061.46,388.00 2061.46,388.00
             2061.46,388.00 2075.14,425.00 2075.14,425.00
             2075.14,425.00 2080.79,437.00 2080.79,437.00
             2080.79,437.00 2088.51,460.00 2088.51,460.00
             2096.22,483.11 2100.28,498.34 2100.00,523.00
             2099.79,540.83 2094.21,572.11 2090.33,590.00
             2090.33,590.00 2085.90,606.00 2085.90,606.00
             2085.90,606.00 2082.28,626.00 2082.28,626.00
             2082.28,626.00 2079.71,657.00 2079.71,657.00
             2078.54,666.51 2073.85,682.93 2070.42,692.00
             2067.37,700.11 2064.77,707.36 2058.82,713.99
             2053.52,719.88 2036.59,732.02 2029.00,734.36
             2023.78,735.97 2007.89,736.97 2002.00,737.00
             1993.26,737.04 1995.25,738.00 1989.00,738.82
             1989.00,738.82 1975.00,740.46 1975.00,740.46
             1965.41,742.20 1948.20,746.91 1939.00,750.18
             1939.00,750.18 1925.00,755.92 1925.00,755.92
             1925.00,755.92 1898.00,762.37 1898.00,762.37
             1881.90,766.45 1867.78,770.81 1851.00,771.00
             1851.00,771.00 1841.00,771.95 1841.00,771.95
             1841.00,771.95 1829.00,771.95 1829.00,771.95
             1829.00,771.95 1814.00,771.00 1814.00,771.00
             1814.00,771.00 1784.00,771.00 1784.00,771.00
             1784.00,771.00 1772.00,770.04 1772.00,770.04
             1772.00,770.04 1761.00,770.04 1761.00,770.04
             1749.44,769.86 1738.32,767.45 1727.00,765.46
             1727.00,765.46 1718.00,764.71 1718.00,764.71
             1718.00,764.71 1704.00,762.08 1704.00,762.08
             1695.57,760.66 1686.55,760.04 1678.00,760.00
             1667.14,759.95 1649.28,753.20 1638.00,750.15
             1638.00,750.15 1610.00,744.35 1610.00,744.35
             1606.45,743.55 1602.00,743.76 1601.00,740.00
             1601.00,740.00 1588.00,737.17 1588.00,737.17
             1575.93,735.96 1567.74,738.02 1554.00,735.38
             1546.14,733.87 1519.51,724.30 1512.00,720.68
             1512.00,720.68 1500.00,714.00 1500.00,714.00
             1500.00,714.00 1500.00,712.00 1500.00,712.00 Z" />
  <path id="Selection #7"
        fill="none" stroke="black" stroke-width="1"
        d="M 1436.00,20.90
           C 1447.87,18.98 1460.16,20.10 1472.00,20.90
             1497.52,22.66 1504.36,22.33 1530.00,28.63
             1530.00,28.63 1539.00,30.54 1539.00,30.54
             1541.68,31.27 1554.69,37.43 1556.91,39.06
             1559.32,40.82 1560.96,42.80 1563.08,44.85
             1564.33,46.04 1566.47,47.82 1567.40,49.17
             1570.06,53.06 1566.34,67.52 1566.03,73.00
             1566.03,73.00 1560.09,128.00 1560.09,128.00
             1560.09,128.00 1561.00,142.00 1561.00,142.00
             1561.19,158.16 1563.56,178.04 1566.46,194.00
             1566.46,194.00 1571.34,215.00 1571.34,215.00
             1576.23,237.56 1581.19,260.05 1588.51,282.00
             1588.51,282.00 1593.42,294.00 1593.42,294.00
             1593.42,294.00 1600.50,315.00 1600.50,315.00
             1600.50,315.00 1606.09,336.00 1606.09,336.00
             1606.09,336.00 1615.25,363.00 1615.25,363.00
             1615.25,363.00 1617.25,376.00 1617.25,376.00
             1617.25,376.00 1620.82,395.00 1620.82,395.00
             1620.82,395.00 1624.28,425.00 1624.28,425.00
             1624.28,425.00 1632.00,468.00 1632.00,468.00
             1632.00,468.00 1632.00,488.00 1632.00,488.00
             1632.00,488.00 1631.00,504.00 1631.00,504.00
             1631.00,504.00 1631.00,563.00 1631.00,563.00
             1631.00,563.00 1632.28,586.00 1632.28,586.00
             1632.28,586.00 1635.00,610.00 1635.00,610.00
             1635.15,623.51 1634.47,627.35 1629.45,640.00
             1624.54,652.37 1615.59,668.79 1606.00,677.96
             1592.24,691.11 1580.31,694.75 1563.00,700.04
             1563.00,700.04 1554.00,703.22 1554.00,703.22
             1554.00,703.22 1544.00,705.23 1544.00,705.23
             1544.00,705.23 1506.00,712.42 1506.00,712.42
             1506.00,712.42 1481.00,717.47 1481.00,717.47
             1477.98,718.22 1466.46,720.94 1464.00,720.77
             1460.29,720.51 1456.21,717.16 1453.00,715.20
             1453.00,715.20 1429.00,699.40 1429.00,699.40
             1429.00,699.40 1414.00,689.74 1414.00,689.74
             1414.00,689.74 1383.00,671.82 1383.00,671.82
             1377.95,668.99 1369.04,663.07 1364.00,661.19
             1364.00,661.19 1341.00,656.20 1341.00,656.20
             1341.00,656.20 1327.00,654.57 1327.00,654.57
             1327.00,654.57 1292.00,649.29 1292.00,649.29
             1292.00,649.29 1275.00,647.71 1275.00,647.71
             1275.00,647.71 1206.00,638.00 1206.00,638.00
             1206.00,638.00 1186.00,638.00 1186.00,638.00
             1174.87,638.02 1165.94,643.09 1156.00,647.69
             1153.00,649.08 1145.69,653.59 1143.00,653.04
             1140.23,652.47 1137.07,648.97 1135.00,647.09
             1132.20,644.56 1123.14,637.51 1120.00,635.55
             1120.00,635.55 1084.00,612.76 1084.00,612.76
             1084.00,612.76 1041.00,578.52 1041.00,578.52
             1031.64,572.30 1024.44,567.76 1014.00,563.42
             1014.00,563.42 1003.00,559.77 1003.00,559.77
             1003.00,559.77 977.00,549.69 977.00,549.69
             977.00,549.69 951.00,535.86 951.00,535.86
             951.00,535.86 916.00,517.04 916.00,517.04
             916.00,517.04 900.00,509.83 900.00,509.83
             900.00,509.83 884.00,501.31 884.00,501.31
             884.00,501.31 846.00,479.58 846.00,479.58
             846.00,479.58 834.01,472.65 834.01,472.65
             830.73,470.15 824.04,463.19 821.17,460.00
             806.99,444.28 799.27,429.06 789.14,411.00
             783.07,400.18 776.02,389.83 771.95,378.00
             771.95,378.00 769.96,370.00 769.96,370.00
             769.96,370.00 760.58,333.00 760.58,333.00
             760.58,333.00 753.09,311.00 753.09,311.00
             753.09,311.00 748.92,300.00 748.92,300.00
             741.94,274.51 740.89,259.50 737.85,234.00
             737.85,234.00 736.56,221.00 736.56,221.00
             736.56,221.00 732.46,202.00 732.46,202.00
             732.46,202.00 729.72,182.00 729.72,182.00
             729.06,176.49 728.17,164.83 731.74,160.28
             733.99,157.40 741.35,155.88 745.00,154.67
             745.00,154.67 780.00,144.56 780.00,144.56
             780.00,144.56 804.00,136.03 804.00,136.03
             804.00,136.03 830.00,128.65 830.00,128.65
             830.00,128.65 870.00,114.69 870.00,114.69
             888.99,108.07 903.05,104.45 921.00,94.15
             921.00,94.15 945.00,79.86 945.00,79.86
             945.00,79.86 980.00,62.67 980.00,62.67
             980.00,62.67 988.00,58.77 988.00,58.77
             988.00,58.77 1021.00,48.15 1021.00,48.15
             1021.00,48.15 1036.00,44.43 1036.00,44.43
             1036.00,44.43 1070.00,33.26 1070.00,33.26
             1082.67,30.84 1120.56,30.17 1135.00,30.00
             1135.00,30.00 1176.00,24.54 1176.00,24.54
             1185.28,22.80 1188.97,21.02 1199.00,21.00
             1199.00,21.00 1227.00,21.00 1227.00,21.00
             1227.00,21.00 1242.00,22.00 1242.00,22.00
             1242.00,22.00 1264.00,22.00 1264.00,22.00
             1264.00,22.00 1279.00,23.00 1279.00,23.00
             1279.00,23.00 1313.00,25.00 1313.00,25.00
             1313.00,25.00 1386.00,25.00 1386.00,25.00
             1386.00,25.00 1410.00,20.90 1410.00,20.90
             1410.00,20.90 1428.00,20.90 1428.00,20.90
             1431.69,20.98 1432.35,20.94 1436.00,20.90 Z" />
  <path id="Selection #6"
        fill="none" stroke="black" stroke-width="1"
        d="M 367.00,144.21
           C 367.00,144.21 425.00,144.21 425.00,144.21
             434.43,144.01 433.83,145.00 442.00,146.63
             442.00,146.63 453.00,148.39 453.00,148.39
             453.00,148.39 486.00,153.96 486.00,153.96
             486.00,153.96 507.00,158.54 507.00,158.54
             507.00,158.54 538.00,163.28 538.00,163.28
             538.00,163.28 551.00,165.71 551.00,165.71
             551.00,165.71 559.00,166.28 559.00,166.28
             559.00,166.28 595.00,170.00 595.00,170.00
             595.00,170.00 609.00,170.00 609.00,170.00
             609.00,170.00 641.00,172.00 641.00,172.00
             641.00,172.00 677.00,172.00 677.00,172.00
             686.60,172.02 684.04,173.20 690.00,173.87
             704.86,175.56 724.36,176.17 735.66,187.47
             743.87,195.67 745.70,208.47 749.65,219.00
             754.04,230.67 755.33,243.76 757.44,256.00
             757.44,256.00 761.58,273.00 761.58,273.00
             761.58,273.00 766.09,311.00 766.09,311.00
             766.83,320.84 771.31,322.06 770.96,333.00
             770.96,333.00 769.96,341.00 769.96,341.00
             769.96,341.00 769.96,351.00 769.96,351.00
             769.96,351.00 767.45,364.00 767.45,364.00
             767.45,364.00 766.49,371.00 766.49,371.00
             765.68,374.87 762.75,383.21 761.18,386.96
             761.18,386.96 756.80,395.04 756.80,395.04
             756.80,395.04 745.24,417.00 745.24,417.00
             745.24,417.00 731.17,440.00 731.17,440.00
             731.17,440.00 720.02,471.00 720.02,471.00
             720.02,471.00 715.03,490.00 715.03,490.00
             715.03,490.00 710.91,503.00 710.91,503.00
             710.91,503.00 707.62,515.00 707.62,515.00
             702.51,529.50 693.81,546.96 691.44,562.00
             690.08,570.63 691.91,575.26 692.00,583.00
             692.00,583.00 692.00,617.00 692.00,617.00
             692.00,617.00 691.00,632.00 691.00,632.00
             691.00,632.00 691.00,647.00 691.00,647.00
             691.00,647.00 688.74,677.00 688.74,677.00
             688.74,677.00 680.77,706.91 680.77,706.91
             680.77,706.91 677.94,713.09 677.94,713.09
             677.94,713.09 671.96,729.00 671.96,729.00
             670.19,733.01 667.71,736.72 666.61,741.00
             665.91,743.72 666.00,746.22 666.00,749.00
             666.00,749.00 666.00,782.00 666.00,782.00
             666.15,794.77 671.91,806.94 675.37,819.00
             675.37,819.00 677.54,830.96 677.54,830.96
             677.54,830.96 680.06,837.17 680.06,837.17
             683.90,848.15 691.76,868.78 698.05,878.00
             698.05,878.00 716.74,901.00 716.74,901.00
             716.74,901.00 722.34,908.99 722.34,908.99
             726.24,913.66 732.04,916.57 732.45,920.83
             732.45,920.83 728.72,933.00 728.72,933.00
             724.77,945.78 710.97,964.29 703.34,976.00
             703.34,976.00 661.61,1037.58 661.61,1037.58
             661.61,1037.58 657.96,1045.00 657.96,1045.00
             657.96,1045.00 651.66,1056.00 651.66,1056.00
             647.41,1064.49 646.37,1070.17 639.33,1077.79
             636.70,1080.65 625.55,1088.88 622.00,1090.60
             622.00,1090.60 614.00,1093.99 614.00,1093.99
             610.58,1095.99 605.85,1100.20 603.00,1103.01
             603.00,1103.01 583.87,1127.00 583.87,1127.00
             578.61,1132.85 574.08,1135.38 568.00,1139.78
             565.22,1141.80 558.72,1148.09 556.00,1148.72
             552.93,1149.43 550.52,1146.80 548.58,1144.83
             548.58,1144.83 536.72,1132.17 536.72,1132.17
             532.43,1127.77 518.27,1116.57 512.91,1112.83
             512.91,1112.83 506.00,1108.76 506.00,1108.76
             506.00,1108.76 498.00,1102.95 498.00,1102.95
             498.00,1102.95 489.00,1098.60 489.00,1098.60
             489.00,1098.60 480.00,1093.26 480.00,1093.26
             480.00,1093.26 464.00,1084.48 464.00,1084.48
             458.61,1082.57 451.71,1082.49 444.00,1079.22
             444.00,1079.22 422.91,1068.74 422.91,1068.74
             422.91,1068.74 409.00,1064.05 409.00,1064.05
             409.00,1064.05 397.00,1058.43 397.00,1058.43
             397.00,1058.43 382.00,1053.28 382.00,1053.28
             382.00,1053.28 362.83,1041.74 362.83,1041.74
             362.83,1041.74 340.00,1027.37 340.00,1027.37
             334.25,1023.25 330.11,1017.96 324.92,1013.37
             319.06,1008.21 312.42,1003.98 307.30,998.00
             307.30,998.00 283.49,966.00 283.49,966.00
             283.49,966.00 259.22,938.83 259.22,938.83
             259.22,938.83 254.79,933.09 254.79,933.09
             254.79,933.09 241.04,917.00 241.04,917.00
             241.04,917.00 233.50,906.17 233.50,906.17
             233.50,906.17 214.60,880.58 214.60,880.58
             214.60,880.58 201.92,860.00 201.92,860.00
             201.92,860.00 189.65,841.96 189.65,841.96
             189.65,841.96 175.21,816.00 175.21,816.00
             175.21,816.00 170.69,808.00 170.69,808.00
             170.69,808.00 165.26,793.00 165.26,793.00
             165.26,793.00 159.42,779.00 159.42,779.00
             152.30,760.10 148.45,748.24 136.66,731.04
             130.59,722.19 113.36,707.60 104.00,702.30
             104.00,702.30 95.00,698.37 95.00,698.37
             91.01,696.09 77.57,685.91 74.37,682.59
             67.10,675.04 60.52,665.59 56.24,656.00
             56.24,656.00 50.70,643.09 50.70,643.09
             50.70,643.09 43.84,632.00 43.84,632.00
             37.66,620.33 36.94,616.27 32.42,605.00
             32.42,605.00 28.72,596.00 28.72,596.00
             28.72,596.00 24.20,573.00 24.20,573.00
             22.10,562.34 20.02,562.15 20.00,550.00
             20.00,550.00 21.00,516.00 21.00,516.00
             21.13,508.26 22.94,509.81 23.00,501.00
             23.00,501.00 23.00,486.00 23.00,486.00
             23.00,486.00 24.00,468.00 24.00,468.00
             24.11,459.12 26.11,443.30 29.09,435.00
             32.14,426.49 40.97,409.45 46.23,402.09
             46.23,402.09 53.76,393.00 53.76,393.00
             53.76,393.00 66.58,370.00 66.58,370.00
             66.58,370.00 77.29,354.00 77.29,354.00
             77.29,354.00 81.14,345.00 81.14,345.00
             81.14,345.00 87.19,331.00 87.19,331.00
             91.23,320.66 92.46,312.78 99.77,303.17
             99.77,303.17 135.58,260.32 135.58,260.32
             135.58,260.32 170.00,232.43 170.00,232.43
             170.00,232.43 179.00,226.57 179.00,226.57
             179.00,226.57 221.00,196.71 221.00,196.71
             221.00,196.71 244.96,184.22 244.96,184.22
             244.96,184.22 269.17,171.72 269.17,171.72
             269.17,171.72 284.00,165.63 284.00,165.63
             290.24,162.56 303.72,154.81 310.00,152.93
             319.01,150.25 333.38,149.00 343.00,147.85
             343.00,147.85 351.91,146.74 351.91,146.74
             351.91,146.74 358.09,145.11 358.09,145.11
             358.09,145.11 367.00,144.21 367.00,144.21 Z" />
  <path id="Selection #5"
        fill="none" stroke="black" stroke-width="1"
        d="M 763.00,360.13
           C 769.24,360.34 772.31,366.29 775.56,371.00
             775.56,371.00 798.24,410.00 798.24,410.00
             803.93,421.18 810.54,435.98 819.17,444.91
             826.90,452.91 837.71,458.76 847.00,464.86
             847.00,464.86 866.00,477.58 866.00,477.58
             866.00,477.58 885.00,488.45 885.00,488.45
             885.00,488.45 897.00,496.31 897.00,496.31
             909.24,504.19 932.54,516.31 946.00,521.99
             946.00,521.99 957.00,525.92 957.00,525.92
             957.00,525.92 1002.00,544.26 1002.00,544.26
             1021.01,553.46 1044.60,568.40 1062.00,580.57
             1062.00,580.57 1084.17,596.20 1084.17,596.20
             1093.82,602.60 1120.14,618.65 1126.96,625.76
             1132.73,631.77 1136.03,639.47 1139.28,647.00
             1139.28,647.00 1149.84,675.00 1149.84,675.00
             1149.84,675.00 1149.84,685.00 1149.84,685.00
             1149.84,685.00 1156.93,714.00 1156.93,714.00
             1156.93,714.00 1156.93,725.00 1156.93,725.00
             1156.93,725.00 1159.00,769.00 1159.00,769.00
             1158.74,790.61 1148.83,824.01 1131.00,837.24
             1125.30,841.47 1115.83,844.67 1109.00,847.40
             1099.48,851.21 1089.97,855.68 1081.00,860.67
             1081.00,860.67 1057.00,877.68 1057.00,877.68
             1057.00,877.68 1037.00,887.67 1037.00,887.67
             1037.00,887.67 1026.00,894.55 1026.00,894.55
             1015.70,900.77 1013.46,901.21 1003.00,905.62
             990.58,910.84 990.12,914.98 975.00,915.00
             975.00,915.00 923.00,915.00 923.00,915.00
             923.00,915.00 908.00,914.00 908.00,914.00
             908.00,914.00 875.00,910.04 875.00,910.04
             875.00,910.04 866.00,910.04 866.00,910.04
             866.00,910.04 845.00,909.00 845.00,909.00
             845.00,909.00 828.00,908.00 828.00,908.00
             828.00,908.00 796.00,908.00 796.00,908.00
             788.60,908.01 773.43,910.88 766.00,912.74
             766.00,912.74 740.00,919.21 740.00,919.21
             734.98,920.29 731.11,921.82 726.00,920.04
             717.56,917.09 709.49,907.55 703.72,901.00
             699.40,896.10 694.85,892.38 691.04,887.00
             681.04,872.86 679.97,866.78 672.89,853.00
             672.89,853.00 661.33,831.00 661.33,831.00
             658.28,823.91 656.79,816.41 654.85,809.00
             651.81,797.43 648.14,780.84 648.00,769.00
             647.67,740.25 652.13,734.11 659.58,708.00
             659.58,708.00 666.03,682.00 666.03,682.00
             666.03,682.00 675.26,656.00 675.26,656.00
             677.12,648.57 678.04,632.90 678.00,625.00
             678.00,625.00 676.00,599.00 676.00,599.00
             676.00,599.00 676.00,580.00 676.00,580.00
             676.00,580.00 677.00,559.00 677.00,559.00
             677.17,545.18 683.39,518.72 687.29,505.00
             687.29,505.00 692.24,486.00 692.24,486.00
             692.24,486.00 701.69,465.00 701.69,465.00
             701.69,465.00 704.54,456.00 704.54,456.00
             704.54,456.00 712.39,436.00 712.39,436.00
             718.15,420.99 720.43,412.93 729.67,399.00
             735.28,390.54 745.21,375.97 752.01,369.00
             755.51,365.43 758.36,362.13 763.00,360.13 Z" />
  <path id="Selection #4"
        fill="none" stroke="black" stroke-width="1"
        d="M 1019.95,888.66
           C 1024.66,889.15 1025.37,893.10 1027.82,897.00
             1031.10,902.21 1039.55,921.20 1041.12,927.00
             1044.09,938.01 1048.23,948.61 1049.71,960.00
             1050.64,967.16 1049.31,969.79 1049.02,976.00
             1049.02,976.00 1049.02,987.00 1049.02,987.00
             1049.02,987.00 1047.00,1016.00 1047.00,1016.00
             1046.96,1024.32 1040.67,1043.38 1036.82,1051.00
             1033.25,1058.05 1030.15,1057.78 1023.00,1058.72
             1011.06,1060.29 994.99,1062.15 985.30,1069.55
             983.34,1071.04 981.67,1072.83 980.64,1075.09
             978.90,1078.86 977.53,1090.30 981.43,1092.98
             983.81,1094.62 995.54,1094.01 999.00,1094.00
             999.00,1094.00 1025.00,1091.02 1025.00,1091.02
             1034.60,1091.42 1031.20,1099.74 1029.87,1109.00
             1028.38,1119.38 1025.05,1129.42 1025.00,1140.00
             1025.00,1140.00 1025.00,1171.00 1025.00,1171.00
             1025.10,1179.24 1027.39,1183.36 1029.25,1191.00
             1030.28,1195.23 1029.98,1197.50 1031.71,1201.99
             1034.08,1208.13 1039.06,1210.88 1038.97,1224.00
             1038.92,1232.36 1033.22,1235.53 1028.29,1241.32
             1024.46,1245.83 1019.56,1253.74 1016.66,1259.00
             1006.43,1277.58 1008.62,1296.01 1003.11,1316.00
             1002.22,1319.24 997.23,1331.37 994.70,1332.98
             992.76,1334.21 989.26,1334.00 987.00,1334.00
             987.00,1334.00 980.00,1334.00 980.00,1334.00
             954.07,1333.69 931.83,1315.70 906.00,1316.00
             899.22,1316.08 892.24,1317.83 886.00,1320.46
             880.16,1322.93 878.74,1325.76 872.00,1325.98
             855.03,1326.54 849.34,1314.65 837.00,1312.55
             830.76,1311.49 824.84,1314.92 819.00,1316.39
             815.54,1317.27 807.86,1317.04 804.00,1317.00
             797.52,1316.92 785.07,1314.41 779.00,1312.19
             779.00,1312.19 769.00,1307.82 769.00,1307.82
             769.00,1307.82 760.00,1305.05 760.00,1305.05
             760.00,1305.05 750.00,1300.63 750.00,1300.63
             743.86,1298.82 734.47,1298.93 728.00,1299.00
             724.45,1299.05 713.12,1300.18 710.00,1301.25
             710.00,1301.25 699.00,1306.91 699.00,1306.91
             690.55,1310.40 679.14,1312.89 670.00,1313.00
             662.03,1313.09 655.37,1312.74 648.00,1309.18
             638.26,1304.48 634.64,1299.63 629.00,1296.21
             629.00,1296.21 611.00,1286.48 611.00,1286.48
             611.00,1286.48 595.00,1272.53 595.00,1272.53
             589.09,1269.35 577.69,1265.78 571.00,1266.04
             571.00,1266.04 547.00,1270.00 547.00,1270.00
             537.51,1270.11 522.67,1270.46 514.00,1266.80
             506.20,1263.51 487.57,1247.48 479.00,1241.42
             466.94,1232.89 458.68,1229.99 447.88,1218.41
             441.08,1211.11 434.95,1203.40 429.54,1195.00
             422.83,1184.60 416.71,1173.45 405.00,1167.82
             396.10,1163.55 379.93,1163.89 370.00,1164.00
             346.32,1164.28 329.63,1175.07 303.00,1172.05
             297.98,1171.48 291.49,1170.22 287.01,1167.86
             267.65,1157.67 261.62,1121.46 251.21,1107.00
             240.19,1091.69 216.45,1088.85 206.35,1076.82
             197.14,1065.84 203.20,1050.02 214.00,1042.70
             222.41,1036.99 231.19,1035.89 241.00,1036.00
             254.83,1036.17 272.23,1048.72 281.57,1058.29
             281.57,1058.29 291.87,1070.96 291.87,1070.96
             291.87,1070.96 300.90,1082.00 300.90,1082.00
             300.90,1082.00 308.21,1094.96 308.21,1094.96
             316.40,1106.76 326.03,1114.11 338.00,1121.53
             341.47,1123.68 342.99,1124.98 347.00,1126.46
             355.58,1129.62 362.06,1129.96 371.00,1130.00
             371.00,1130.00 382.00,1130.97 382.00,1130.97
             382.00,1130.97 397.00,1130.97 397.00,1130.97
             397.00,1130.97 424.00,1130.97 424.00,1130.97
             424.00,1130.97 436.00,1132.10 436.00,1132.10
             436.00,1132.10 446.00,1132.10 446.00,1132.10
             446.00,1132.10 466.00,1135.51 466.00,1135.51
             466.00,1135.51 478.00,1138.74 478.00,1138.74
             478.00,1138.74 501.00,1141.43 501.00,1141.43
             501.00,1141.43 520.00,1144.00 520.00,1144.00
             525.79,1144.06 534.81,1143.93 540.00,1141.31
             545.10,1138.75 549.99,1131.83 554.10,1127.51
             554.10,1127.51 582.04,1100.21 582.04,1100.21
             582.04,1100.21 603.00,1084.90 603.00,1084.90
             603.00,1084.90 612.00,1079.22 612.00,1079.22
             620.28,1073.26 636.63,1057.90 642.66,1049.72
             646.73,1044.19 647.17,1040.62 650.34,1035.00
             650.34,1035.00 666.04,1011.00 666.04,1011.00
             666.04,1011.00 683.45,987.00 683.45,987.00
             683.45,987.00 710.24,954.00 710.24,954.00
             710.24,954.00 720.83,937.00 720.83,937.00
             724.46,930.21 726.49,923.06 731.67,917.17
             736.01,912.24 740.23,910.32 746.00,907.70
             757.89,902.30 777.92,898.02 791.00,898.00
             791.00,898.00 818.00,898.00 818.00,898.00
             818.00,898.00 855.00,901.84 855.00,901.84
             855.00,901.84 875.00,903.17 875.00,903.17
             893.48,904.94 890.48,907.27 914.00,907.00
             914.00,907.00 938.00,905.00 938.00,905.00
             938.00,905.00 968.00,902.94 968.00,902.94
             968.00,902.94 978.00,902.94 978.00,902.94
             978.00,902.94 1019.95,888.66 1019.95,888.66 Z" />
  <path id="Selection #3"
        fill="none" stroke="black" stroke-width="1"
        d="M 1019.00,1095.00
           C 1012.65,1096.49 1012.01,1097.90 1005.00,1098.00
             1005.00,1098.00 998.00,1098.00 998.00,1098.00
             988.53,1097.99 987.39,1097.49 980.04,1091.36
             974.28,1086.55 973.73,1083.80 977.51,1077.00
             981.52,1069.80 988.52,1063.34 997.00,1062.21
             997.00,1062.21 1010.00,1063.00 1010.00,1063.00
             1016.29,1063.07 1023.07,1063.46 1027.35,1057.89
             1030.21,1054.18 1032.57,1036.36 1033.07,1031.00
             1033.07,1031.00 1038.26,997.00 1038.26,997.00
             1039.24,991.72 1041.18,981.13 1040.82,976.00
             1039.85,962.41 1035.16,949.88 1031.20,937.00
             1031.20,937.00 1024.78,915.00 1024.78,915.00
             1023.29,910.33 1017.13,899.24 1017.25,896.00
             1017.48,889.82 1028.40,883.17 1033.00,879.39
             1033.00,879.39 1044.00,869.61 1044.00,869.61
             1053.30,862.69 1066.36,856.64 1077.00,852.00
             1080.86,850.31 1087.76,845.78 1091.00,845.29
             1095.93,844.54 1098.79,847.87 1102.00,851.00
             1102.00,851.00 1118.17,865.44 1118.17,865.44
             1118.17,865.44 1131.91,878.09 1131.91,878.09
             1131.91,878.09 1139.04,886.00 1139.04,886.00
             1139.04,886.00 1163.91,910.42 1163.91,910.42
             1163.91,910.42 1169.51,916.72 1169.51,916.72
             1174.47,922.12 1180.55,925.50 1187.00,928.75
             1187.00,928.75 1203.00,937.82 1203.00,937.82
             1203.00,937.82 1214.00,943.45 1214.00,943.45
             1214.00,943.45 1224.00,949.68 1224.00,949.68
             1224.00,949.68 1255.00,963.86 1255.00,963.86
             1272.74,973.78 1288.63,986.61 1305.00,998.51
             1305.00,998.51 1317.00,1005.70 1317.00,1005.70
             1317.00,1005.70 1340.00,1022.66 1340.00,1022.66
             1353.43,1033.39 1364.25,1047.48 1375.91,1060.00
             1380.07,1064.46 1382.04,1067.46 1387.00,1071.70
             1392.37,1076.29 1400.39,1081.00 1407.00,1083.54
             1415.62,1086.85 1416.48,1084.86 1426.00,1091.08
             1432.14,1095.09 1437.41,1099.87 1443.00,1104.56
             1443.00,1104.56 1459.00,1117.12 1459.00,1117.12
             1473.95,1128.52 1481.16,1132.73 1498.00,1140.74
             1498.00,1140.74 1511.00,1145.42 1511.00,1145.42
             1511.00,1145.42 1558.00,1162.46 1558.00,1162.46
             1558.00,1162.46 1577.00,1169.04 1577.00,1169.04
             1581.62,1171.20 1586.73,1174.78 1591.00,1177.67
             1591.00,1177.67 1602.00,1185.54 1602.00,1185.54
             1606.36,1188.26 1614.24,1192.16 1616.26,1197.09
             1617.37,1199.79 1616.96,1207.69 1617.00,1211.00
             1617.00,1211.00 1618.43,1227.00 1618.43,1227.00
             1618.77,1229.61 1619.56,1235.23 1618.43,1237.59
             1617.21,1240.10 1608.78,1243.24 1606.00,1244.43
             1606.00,1244.43 1572.00,1258.67 1572.00,1258.67
             1572.00,1258.67 1561.00,1266.91 1561.00,1266.91
             1549.15,1274.51 1536.15,1279.89 1523.00,1284.69
             1515.62,1287.39 1514.33,1289.89 1506.00,1290.00
             1506.00,1290.00 1498.00,1290.00 1498.00,1290.00
             1483.71,1289.83 1460.66,1284.53 1448.00,1278.02
             1444.46,1276.20 1438.48,1271.88 1435.29,1269.34
             1435.29,1269.34 1414.00,1248.39 1414.00,1248.39
             1414.00,1248.39 1396.00,1238.54 1396.00,1238.54
             1396.00,1238.54 1365.32,1215.25 1365.32,1215.25
             1365.32,1215.25 1329.00,1173.00 1329.00,1173.00
             1329.00,1173.00 1323.55,1185.00 1323.55,1185.00
             1320.01,1194.98 1315.64,1220.86 1314.28,1232.00
             1314.28,1232.00 1313.68,1239.00 1313.68,1239.00
             1313.68,1239.00 1308.74,1259.00 1308.74,1259.00
             1305.05,1274.60 1307.99,1267.00 1299.46,1281.00
             1297.29,1284.56 1296.14,1288.42 1291.96,1290.11
             1289.86,1290.96 1287.23,1290.97 1285.00,1291.00
             1272.42,1291.13 1262.29,1286.03 1252.00,1279.34
             1249.00,1277.39 1245.06,1275.49 1242.79,1272.79
             1240.63,1270.22 1236.43,1260.51 1235.02,1257.00
             1230.59,1246.01 1236.86,1231.52 1224.96,1228.19
             1223.08,1227.92 1220.00,1228.00 1218.00,1228.19
             1218.00,1228.19 1204.00,1228.19 1204.00,1228.19
             1196.69,1228.88 1195.76,1229.99 1187.00,1230.00
             1187.00,1230.00 1169.00,1230.00 1169.00,1230.00
             1154.45,1229.98 1150.34,1225.23 1138.00,1221.10
             1138.00,1221.10 1119.00,1218.55 1119.00,1218.55
             1110.16,1216.74 1102.25,1213.11 1093.00,1213.23
             1089.70,1212.96 1085.17,1212.87 1082.00,1213.23
             1069.51,1215.82 1056.03,1228.57 1038.00,1231.20
             1033.01,1231.92 1030.53,1228.63 1027.75,1225.00
             1021.14,1216.36 1018.52,1210.30 1015.58,1200.00
             1012.66,1189.79 1008.02,1181.59 1008.00,1171.00
             1008.00,1171.00 1008.00,1158.00 1008.00,1158.00
             1008.01,1150.09 1009.70,1142.76 1010.71,1135.00
             1010.71,1135.00 1011.29,1127.00 1011.29,1127.00
             1011.29,1127.00 1019.00,1095.00 1019.00,1095.00 Z" />
  <path id="Selection #1"
        fill="none" stroke="black" stroke-width="1"
        d="M 1411.00,919.00
           C 1411.00,919.00 1391.00,919.99 1391.00,919.99
             1384.03,919.83 1368.74,917.34 1363.29,913.15
             1354.05,906.05 1355.43,891.45 1364.04,884.53
             1368.61,880.87 1371.50,881.01 1377.00,881.08
             1377.00,881.08 1389.00,881.08 1389.00,881.08
             1389.00,881.08 1405.00,883.00 1405.00,883.00
             1410.64,883.06 1416.16,883.33 1420.74,879.36
             1424.16,876.39 1425.97,870.26 1427.28,866.00
             1427.28,866.00 1435.47,835.00 1435.47,835.00
             1440.51,814.75 1447.64,758.66 1450.17,736.00
             1451.06,728.03 1455.44,712.86 1463.00,709.02
             1465.40,707.81 1468.38,708.01 1471.00,708.00
             1471.00,708.00 1491.00,708.00 1491.00,708.00
             1501.62,708.13 1504.14,711.92 1513.00,715.77
             1522.73,720.00 1532.74,723.19 1543.00,725.85
             1554.17,728.74 1566.54,728.98 1578.00,729.00
             1578.00,729.00 1606.00,732.51 1606.00,732.51
             1606.00,732.51 1634.00,738.91 1634.00,738.91
             1634.00,738.91 1660.00,746.33 1660.00,746.33
             1660.00,746.33 1674.00,748.46 1674.00,748.46
             1682.35,750.12 1683.37,752.88 1693.00,753.00
             1693.00,753.00 1684.46,795.00 1684.46,795.00
             1684.46,795.00 1680.48,823.00 1680.48,823.00
             1679.35,827.32 1677.65,829.03 1676.69,832.00
             1676.69,832.00 1675.54,844.00 1675.54,844.00
             1675.54,844.00 1671.06,868.00 1671.06,868.00
             1671.05,875.12 1674.86,874.99 1677.99,880.04
             1679.87,883.07 1679.95,885.57 1680.00,889.00
             1680.08,895.09 1679.83,904.94 1674.66,909.03
             1671.03,911.91 1667.33,911.33 1664.81,914.31
             1664.81,914.31 1655.87,934.00 1655.87,934.00
             1645.13,959.21 1644.75,974.25 1636.92,997.00
             1636.92,997.00 1621.35,1031.00 1621.35,1031.00
             1617.44,1042.76 1617.86,1051.88 1618.00,1064.00
             1618.00,1064.00 1626.00,1130.00 1626.00,1130.00
             1626.00,1130.00 1626.00,1154.00 1626.00,1154.00
             1626.00,1154.00 1624.89,1165.00 1624.89,1165.00
             1624.89,1165.00 1624.89,1176.00 1624.89,1176.00
             1624.89,1176.00 1619.00,1201.00 1619.00,1201.00
             1606.71,1200.96 1601.45,1196.99 1591.00,1191.76
             1584.84,1188.68 1580.84,1187.52 1575.04,1183.08
             1568.41,1178.00 1564.03,1171.56 1556.00,1167.75
             1556.00,1167.75 1546.00,1163.61 1546.00,1163.61
             1546.00,1163.61 1538.00,1162.42 1538.00,1162.42
             1525.67,1160.63 1512.60,1159.32 1501.00,1154.41
             1496.25,1152.40 1478.64,1141.21 1475.09,1137.82
             1470.02,1132.97 1469.88,1129.01 1463.98,1124.95
             1463.98,1124.95 1437.00,1109.93 1437.00,1109.93
             1437.00,1109.93 1429.00,1107.62 1429.00,1107.62
             1421.35,1105.62 1415.66,1102.04 1409.00,1097.96
             1409.00,1097.96 1399.00,1091.96 1399.00,1091.96
             1399.00,1091.96 1363.00,1063.96 1363.00,1063.96
             1360.79,1061.84 1351.28,1052.58 1351.08,1049.91
             1350.86,1046.91 1355.33,1041.38 1357.13,1039.00
             1365.95,1027.35 1368.90,1028.63 1377.55,1014.00
             1384.30,1002.58 1391.85,973.78 1397.42,959.00
             1401.82,947.34 1410.42,930.85 1411.00,919.00 Z" />
  <path id="Selection #2"
        fill="none" stroke="black" stroke-width="1"
        d="M 1363.00,1064.00
           C 1352.51,1058.24 1349.92,1051.09 1342.47,1042.17
             1342.47,1042.17 1331.29,1030.00 1331.29,1030.00
             1321.81,1019.10 1314.13,1008.41 1302.00,1000.04
             1294.67,994.98 1291.73,996.08 1284.00,992.91
             1284.00,992.91 1263.00,981.70 1263.00,981.70
             1263.00,981.70 1220.00,950.87 1220.00,950.87
             1213.14,946.97 1205.28,945.02 1198.00,941.99
             1198.00,941.99 1173.00,929.12 1173.00,929.12
             1161.82,922.63 1153.13,912.96 1144.00,904.01
             1144.00,904.01 1121.53,882.00 1121.53,882.00
             1121.53,882.00 1109.22,860.00 1109.22,860.00
             1109.22,860.00 1103.12,851.00 1103.12,851.00
             1101.59,847.06 1105.36,842.00 1108.18,839.53
             1114.39,834.08 1124.82,833.46 1132.47,823.96
             1140.17,814.41 1140.65,802.45 1142.42,791.00
             1144.53,777.45 1147.17,772.42 1147.00,758.00
             1147.00,758.00 1146.17,749.00 1146.17,749.00
             1146.17,749.00 1140.43,707.00 1140.43,707.00
             1140.43,707.00 1137.70,680.00 1137.70,680.00
             1136.36,670.99 1129.42,658.85 1133.01,650.00
             1135.16,644.69 1140.46,641.04 1145.00,637.88
             1149.32,634.89 1155.89,630.70 1161.00,629.53
             1161.00,629.53 1202.00,629.00 1202.00,629.00
             1217.33,629.02 1255.13,635.24 1272.00,637.73
             1272.00,637.73 1300.00,641.72 1300.00,641.72
             1300.00,641.72 1329.00,645.66 1329.00,645.66
             1345.10,649.15 1375.53,658.27 1390.00,665.26
             1396.96,668.62 1403.54,672.62 1410.00,676.86
             1410.00,676.86 1420.00,683.49 1420.00,683.49
             1425.74,686.41 1440.42,693.79 1445.00,697.39
             1455.43,705.58 1465.68,723.39 1464.91,737.00
             1463.99,753.23 1457.72,776.63 1454.45,793.00
             1454.45,793.00 1449.30,824.00 1449.30,824.00
             1449.30,824.00 1446.37,842.00 1446.37,842.00
             1444.20,850.48 1441.92,859.03 1438.30,867.00
             1436.88,870.13 1435.48,874.11 1432.67,876.27
             1430.14,878.21 1425.16,878.73 1422.00,879.25
             1422.00,879.25 1403.00,880.96 1403.00,880.96
             1403.00,880.96 1392.00,880.00 1392.00,880.00
             1385.68,879.93 1373.12,879.13 1368.02,882.58
             1360.29,887.81 1355.42,903.54 1364.11,910.35
             1370.14,915.08 1378.79,914.92 1386.00,915.00
             1386.00,915.00 1406.00,916.00 1406.00,916.00
             1406.00,916.00 1423.00,915.00 1423.00,915.00
             1421.37,926.58 1412.88,944.42 1409.02,957.00
             1409.02,957.00 1396.55,1001.00 1396.55,1001.00
             1396.55,1001.00 1381.84,1029.00 1381.84,1029.00
             1373.99,1045.58 1374.70,1048.34 1363.00,1064.00 Z" />
  <path id="Selection"
        fill="none" stroke="black" stroke-width="1"
        d="M 1610.00,1239.00
           C 1610.00,1239.00 1610.00,1228.00 1610.00,1228.00
             1610.00,1228.00 1611.91,1212.00 1611.91,1212.00
             1611.91,1212.00 1611.91,1200.00 1611.91,1200.00
             1611.91,1200.00 1610.00,1180.00 1610.00,1180.00
             1610.00,1180.00 1610.00,1121.00 1610.00,1121.00
             1609.99,1112.18 1607.68,1103.70 1606.43,1095.00
             1605.19,1086.37 1604.99,1077.71 1605.00,1069.00
             1605.00,1069.00 1610.76,1028.00 1610.76,1028.00
             1610.76,1028.00 1615.71,1013.00 1615.71,1013.00
             1615.71,1013.00 1620.10,1004.00 1620.10,1004.00
             1620.10,1004.00 1625.39,991.00 1625.39,991.00
             1625.39,991.00 1631.09,972.00 1631.09,972.00
             1631.09,972.00 1636.80,960.00 1636.80,960.00
             1636.80,960.00 1641.78,945.00 1641.78,945.00
             1641.78,945.00 1649.45,919.00 1649.45,919.00
             1649.98,916.44 1651.78,908.47 1653.72,906.91
             1655.77,905.45 1659.61,906.64 1662.00,906.91
             1670.91,907.51 1674.82,900.47 1677.00,893.00
             1677.51,891.25 1678.57,887.73 1678.56,886.00
             1678.47,878.30 1669.81,880.81 1669.06,872.00
             1669.06,872.00 1671.00,847.00 1671.00,847.00
             1671.00,847.00 1670.09,828.00 1670.09,828.00
             1670.09,828.00 1672.06,814.00 1672.06,814.00
             1672.06,814.00 1672.06,806.00 1672.06,806.00
             1672.99,800.59 1673.92,799.14 1674.00,793.00
             1674.00,793.00 1675.96,770.00 1675.96,770.00
             1676.12,766.44 1675.59,761.23 1678.51,758.60
             1681.97,755.47 1694.10,757.97 1699.00,758.00
             1699.00,758.00 1738.00,761.44 1738.00,761.44
             1747.19,762.92 1755.57,764.99 1765.00,765.00
             1765.00,765.00 1812.00,767.00 1812.00,767.00
             1827.13,766.98 1842.21,763.13 1857.00,760.46
             1857.00,760.46 1865.00,759.22 1865.00,759.22
             1865.00,759.22 1903.00,748.42 1903.00,748.42
             1903.00,748.42 1923.00,743.80 1923.00,743.80
             1936.12,741.29 1949.41,739.67 1962.00,734.80
             1974.41,729.99 1997.39,721.92 2010.00,719.40
             2018.44,717.71 2027.19,717.00 2033.58,724.21
             2041.45,733.08 2032.76,735.70 2031.35,743.00
             2030.22,748.84 2033.66,752.32 2030.52,760.00
             2028.06,766.02 2022.43,770.29 2018.09,775.00
             2014.15,779.29 2011.96,783.09 2009.00,788.00
             2009.00,788.00 2021.00,792.32 2021.00,792.32
             2021.00,792.32 2034.00,793.32 2034.00,793.32
             2034.00,793.32 2053.00,798.90 2053.00,798.90
             2053.00,798.90 2071.00,808.73 2071.00,808.73
             2071.00,808.73 2104.00,824.63 2104.00,824.63
             2104.00,824.63 2117.00,833.78 2117.00,833.78
             2126.55,840.25 2133.95,840.99 2143.54,852.03
             2157.11,867.67 2157.93,881.29 2163.57,900.00
             2163.57,900.00 2176.85,942.00 2176.85,942.00
             2176.85,942.00 2176.85,951.00 2176.85,951.00
             2176.91,958.22 2173.64,967.06 2171.33,974.00
             2168.33,983.05 2166.59,990.40 2161.82,999.00
             2161.82,999.00 2147.66,1020.00 2147.66,1020.00
             2147.66,1020.00 2138.46,1030.00 2138.46,1030.00
             2138.46,1030.00 2120.70,1052.54 2120.70,1052.54
             2115.53,1057.48 2104.71,1063.69 2098.00,1066.40
             2098.00,1066.40 2082.00,1071.73 2082.00,1071.73
             2071.91,1075.77 2058.42,1082.12 2048.00,1084.33
             2048.00,1084.33 2038.00,1085.61 2038.00,1085.61
             2031.26,1086.80 2024.91,1088.14 2018.00,1087.99
             2018.00,1087.99 2001.00,1085.29 2001.00,1085.29
             1989.54,1083.78 1980.33,1082.73 1969.00,1079.65
             1963.58,1078.17 1954.10,1072.09 1949.00,1069.17
             1949.00,1069.17 1920.00,1054.70 1920.00,1054.70
             1916.95,1053.10 1905.03,1046.16 1902.33,1047.24
             1899.60,1048.34 1897.26,1054.42 1895.83,1057.00
             1895.83,1057.00 1880.77,1082.00 1880.77,1082.00
             1880.77,1082.00 1853.43,1118.00 1853.43,1118.00
             1841.94,1134.01 1835.12,1146.78 1819.91,1160.56
             1819.91,1160.56 1802.00,1175.25 1802.00,1175.25
             1802.00,1175.25 1789.09,1183.95 1789.09,1183.95
             1789.09,1183.95 1780.99,1190.91 1780.99,1190.91
             1774.84,1195.19 1759.18,1202.87 1752.00,1205.81
             1737.85,1211.60 1716.20,1216.07 1701.00,1219.42
             1701.00,1219.42 1681.00,1224.15 1681.00,1224.15
             1681.00,1224.15 1670.00,1227.34 1670.00,1227.34
             1670.00,1227.34 1655.00,1229.90 1655.00,1229.90
             1655.00,1229.90 1639.00,1234.33 1639.00,1234.33
             1639.00,1234.33 1610.00,1239.00 1610.00,1239.00 Z" />
</svg>
