<?xml version="1.0" encoding="UTF-8" standalone="no"?>
<!DOCTYPE svg PUBLIC "-//W3C//DTD SVG 20010904//EN"
              "http://www.w3.org/TR/2001/REC-SVG-20010904/DTD/svg10.dtd">

<svg xmlns="http://www.w3.org/2000/svg"
     width="22.8229in" height="14.1042in"
     viewBox="0 0 2191 1354">
  <path id="Selection #5"
        fill="none" stroke="black" stroke-width="1"
        d="M 763.00,360.13
           C 769.24,360.34 772.31,366.29 775.56,371.00
             775.56,371.00 798.24,410.00 798.24,410.00
             803.93,421.18 810.54,435.98 819.17,444.91
             826.90,452.91 837.71,458.76 847.00,464.86
             847.00,464.86 866.00,477.58 866.00,477.58
             866.00,477.58 885.00,488.45 885.00,488.45
             885.00,488.45 897.00,496.31 897.00,496.31
             909.24,504.19 932.54,516.31 946.00,521.99
             946.00,521.99 957.00,525.92 957.00,525.92
             957.00,525.92 1002.00,544.26 1002.00,544.26
             1021.01,553.46 1044.60,568.40 1062.00,580.57
             1062.00,580.57 1084.17,596.20 1084.17,596.20
             1093.82,602.60 1120.14,618.65 1126.96,625.76
             1132.73,631.77 1136.03,639.47 1139.28,647.00
             1139.28,647.00 1149.84,675.00 1149.84,675.00
             1149.84,675.00 1149.84,685.00 1149.84,685.00
             1149.84,685.00 1156.93,714.00 1156.93,714.00
             1156.93,714.00 1156.93,725.00 1156.93,725.00
             1156.93,725.00 1159.00,769.00 1159.00,769.00
             1158.74,790.61 1148.83,824.01 1131.00,837.24
             1125.30,841.47 1115.83,844.67 1109.00,847.40
             1099.48,851.21 1089.97,855.68 1081.00,860.67
             1081.00,860.67 1057.00,877.68 1057.00,877.68
             1057.00,877.68 1037.00,887.67 1037.00,887.67
             1037.00,887.67 1026.00,894.55 1026.00,894.55
             1015.70,900.77 1013.46,901.21 1003.00,905.62
             990.58,910.84 990.12,914.98 975.00,915.00
             975.00,915.00 923.00,915.00 923.00,915.00
             923.00,915.00 908.00,914.00 908.00,914.00
             908.00,914.00 875.00,910.04 875.00,910.04
             875.00,910.04 866.00,910.04 866.00,910.04
             866.00,910.04 845.00,909.00 845.00,909.00
             845.00,909.00 828.00,908.00 828.00,908.00
             828.00,908.00 796.00,908.00 796.00,908.00
             788.60,908.01 773.43,910.88 766.00,912.74
             766.00,912.74 740.00,919.21 740.00,919.21
             734.98,920.29 731.11,921.82 726.00,920.04
             717.56,917.09 709.49,907.55 703.72,901.00
             699.40,896.10 694.85,892.38 691.04,887.00
             681.04,872.86 679.97,866.78 672.89,853.00
             672.89,853.00 661.33,831.00 661.33,831.00
             658.28,823.91 656.79,816.41 654.85,809.00
             651.81,797.43 648.14,780.84 648.00,769.00
             647.67,740.25 652.13,734.11 659.58,708.00
             659.58,708.00 666.03,682.00 666.03,682.00
             666.03,682.00 675.26,656.00 675.26,656.00
             677.12,648.57 678.04,632.90 678.00,625.00
             678.00,625.00 676.00,599.00 676.00,599.00
             676.00,599.00 676.00,580.00 676.00,580.00
             676.00,580.00 677.00,559.00 677.00,559.00
             677.17,545.18 683.39,518.72 687.29,505.00
             687.29,505.00 692.24,486.00 692.24,486.00
             692.24,486.00 701.69,465.00 701.69,465.00
             701.69,465.00 704.54,456.00 704.54,456.00
             704.54,456.00 712.39,436.00 712.39,436.00
             718.15,420.99 720.43,412.93 729.67,399.00
             735.28,390.54 745.21,375.97 752.01,369.00
             755.51,365.43 758.36,362.13 763.00,360.13 Z" />
</svg>
