<?xml version="1.0" encoding="UTF-8" standalone="no"?>
<svg
   width="8.8457727in"
   height="4.6497283in"
   viewBox="0 0 849.19477 446.37285"
   version="1.1"
   id="svg1"
   xmlns="http://www.w3.org/2000/svg"
   xmlns:svg="http://www.w3.org/2000/svg">
  <defs
     id="defs1" />
  <path
     id="Selection #4"
     fill="none"
     stroke="#000000"
     stroke-width="1"
     d="m 818.60928,0.50797769 c 4.71,0.49 5.42,4.44000001 7.87,8.34000001 3.28,5.2100003 11.73,24.2000003 13.3,30.0000003 2.97,11.01 7.11,21.61 8.59,33 0.93,7.16 -0.4,9.79 -0.69,16 0,0 0,11 0,11 0,0 -2.02,29.000002 -2.02,29.000002 -0.04,8.32 -6.33,27.38 -10.18,35 -3.57,7.05 -6.67,6.78 -13.82,7.72 -11.94,1.57 -28.01,3.43 -37.7,10.83 -1.96,1.49 -3.63,3.28 -4.66,5.54 -1.74,3.77 -3.11,15.21 0.79,17.89 2.38,1.64 14.11,1.03 17.57,1.02 0,0 26,-2.98 26,-2.98 9.6,0.4 6.2,8.72 4.87,17.98 -1.49,10.38 -4.82,20.42 -4.87,31 0,0 0,31 0,31 0.1,8.24 2.39,12.36 4.25,20 1.03,4.23 0.73,6.5 2.46,10.99 2.37,6.14 7.35,8.89 7.26,22.01 -0.05,8.36 -5.75,11.53 -10.68,17.32 -3.83,4.51 -8.73,12.42 -11.63,17.68 -10.23,18.58 -8.04,37.01 -13.55,57 -0.89,3.24 -5.88,15.37 -8.41,16.98 -1.94,1.23 -5.44,1.02 -7.7,1.02 0,0 -7,0 -7,0 -25.93,-0.31 -48.17,-18.3 -74,-18 -6.78,0.08 -13.76,1.83 -20,4.46 -5.84,2.47 -7.26,5.3 -14,5.52 -16.97,0.56 -22.66,-11.33 -35,-13.43 -6.24,-1.06 -12.16,2.37 -18,3.84 -3.46,0.88 -11.14,0.65 -15,0.61 -6.48,-0.08 -18.93,-2.59 -25,-4.81 0,0 -10,-4.37 -10,-4.37 0,0 -9,-2.77 -9,-2.77 0,0 -10,-4.42 -10,-4.42 -6.14,-1.81 -15.53,-1.7 -22,-1.63 -3.55,0.05 -14.88,1.18 -18,2.25 0,0 -11,5.66 -11,5.66 -8.45,3.49 -19.86,5.98 -29,6.09 -7.97,0.09 -14.63,-0.26 -22,-3.82 -9.74,-4.7 -13.36,-9.55 -19,-12.97 0,0 -18,-9.73 -18,-9.73 0,0 -16,-13.95 -16,-13.95 -5.91,-3.18 -17.31,-6.75 -24,-6.49 0,0 -24,3.96 -24,3.96 -9.49,0.11 -24.33,0.46 -33,-3.2 -7.8,-3.29 -26.43,-19.32 -35,-25.38 -12.06,-8.53 -20.32,-11.43 -31.12,-23.01 -6.8,-7.3 -12.93,-15.01 -18.34,-23.41 -6.71,-10.4 -12.83,-21.55 -24.54,-27.18 -8.9,-4.27 -25.07,-3.93 -35,-3.82 -23.68,0.28 -40.37,11.07 -67,8.05 -5.019996,-0.57 -11.509996,-1.83 -15.989996,-4.19 -19.36,-10.19 -25.39,-46.4 -35.8,-60.86 -11.02,-15.31 -34.76,-18.15 -44.8600002,-30.18 -9.21,-10.98 -3.15,-26.8 7.6500002,-34.12 8.41,-5.71 17.19,-6.81 27,-6.7 13.83,0.17 31.23,12.72 40.57,22.29 0,0 10.3,12.67 10.3,12.67 0,0 9.03,11.04 9.03,11.04 0,0 7.309996,12.96 7.309996,12.96 8.19,11.8 17.82,19.15 29.79,26.57 3.47,2.15 4.99,3.45 9,4.93 8.58,3.16 15.06,3.5 24,3.54 0,0 11,0.97 11,0.97 0,0 15,0 15,0 0,0 27,0 27,0 0,0 12,1.13 12,1.13 0,0 10,0 10,0 0,0 20,3.41 20,3.41 0,0 12,3.23 12,3.23 0,0 23,2.69 23,2.69 0,0 19,2.57 19,2.57 5.79,0.06 14.81,-0.07 20,-2.69 5.1,-2.56 9.99,-9.48 14.1,-13.8 0,0 27.94,-27.3 27.94,-27.3 0,0 20.96,-15.31 20.96,-15.31 0,0 9,-5.68 9,-5.68 8.28,-5.96 24.63,-21.32 30.66,-29.5 4.07,-5.53 4.51,-9.1 7.68,-14.72 0,0 15.7,-24 15.7,-24 0,0 17.41,-24.000002 17.41,-24.000002 0,0 26.79,-33 26.79,-33 0,0 10.59,-17 10.59,-17 3.63,-6.79 5.66,-13.94 10.84,-19.83 4.34,-4.93 8.56,-6.85 14.33,-9.47 11.89,-5.4 31.92,-9.6800003 45,-9.7000003 0,0 27,0 27,0 0,0 37,3.8400003 37,3.8400003 0,0 20,1.33 20,1.33 18.48,1.77 15.48,4.1 39,3.83 0,0 24,-2 24,-2 0,0 30,-2.06 30,-2.06 0,0 10,0 10,0 z"
     style="fill:#000000;fill-opacity:1" />
</svg>
