<?xml version="1.0" encoding="UTF-8" standalone="no"?>
<!DOCTYPE svg PUBLIC "-//W3C//DTD SVG 20010904//EN"
              "http://www.w3.org/TR/2001/REC-SVG-20010904/DTD/svg10.dtd">

<svg xmlns="http://www.w3.org/2000/svg"
     width="22.8229in" height="14.1042in"
     viewBox="0 0 2191 1354">
  <path id="Selection #3"
        fill="none" stroke="black" stroke-width="1"
        d="M 1019.00,1095.00
           C 1012.65,1096.49 1012.01,1097.90 1005.00,1098.00
             1005.00,1098.00 998.00,1098.00 998.00,1098.00
             988.53,1097.99 987.39,1097.49 980.04,1091.36
             974.28,1086.55 973.73,1083.80 977.51,1077.00
             981.52,1069.80 988.52,1063.34 997.00,1062.21
             997.00,1062.21 1010.00,1063.00 1010.00,1063.00
             1016.29,1063.07 1023.07,1063.46 1027.35,1057.89
             1030.21,1054.18 1032.57,1036.36 1033.07,1031.00
             1033.07,1031.00 1038.26,997.00 1038.26,997.00
             1039.24,991.72 1041.18,981.13 1040.82,976.00
             1039.85,962.41 1035.16,949.88 1031.20,937.00
             1031.20,937.00 1024.78,915.00 1024.78,915.00
             1023.29,910.33 1017.13,899.24 1017.25,896.00
             1017.48,889.82 1028.40,883.17 1033.00,879.39
             1033.00,879.39 1044.00,869.61 1044.00,869.61
             1053.30,862.69 1066.36,856.64 1077.00,852.00
             1080.86,850.31 1087.76,845.78 1091.00,845.29
             1095.93,844.54 1098.79,847.87 1102.00,851.00
             1102.00,851.00 1118.17,865.44 1118.17,865.44
             1118.17,865.44 1131.91,878.09 1131.91,878.09
             1131.91,878.09 1139.04,886.00 1139.04,886.00
             1139.04,886.00 1163.91,910.42 1163.91,910.42
             1163.91,910.42 1169.51,916.72 1169.51,916.72
             1174.47,922.12 1180.55,925.50 1187.00,928.75
             1187.00,928.75 1203.00,937.82 1203.00,937.82
             1203.00,937.82 1214.00,943.45 1214.00,943.45
             1214.00,943.45 1224.00,949.68 1224.00,949.68
             1224.00,949.68 1255.00,963.86 1255.00,963.86
             1272.74,973.78 1288.63,986.61 1305.00,998.51
             1305.00,998.51 1317.00,1005.70 1317.00,1005.70
             1317.00,1005.70 1340.00,1022.66 1340.00,1022.66
             1353.43,1033.39 1364.25,1047.48 1375.91,1060.00
             1380.07,1064.46 1382.04,1067.46 1387.00,1071.70
             1392.37,1076.29 1400.39,1081.00 1407.00,1083.54
             1415.62,1086.85 1416.48,1084.86 1426.00,1091.08
             1432.14,1095.09 1437.41,1099.87 1443.00,1104.56
             1443.00,1104.56 1459.00,1117.12 1459.00,1117.12
             1473.95,1128.52 1481.16,1132.73 1498.00,1140.74
             1498.00,1140.74 1511.00,1145.42 1511.00,1145.42
             1511.00,1145.42 1558.00,1162.46 1558.00,1162.46
             1558.00,1162.46 1577.00,1169.04 1577.00,1169.04
             1581.62,1171.20 1586.73,1174.78 1591.00,1177.67
             1591.00,1177.67 1602.00,1185.54 1602.00,1185.54
             1606.36,1188.26 1614.24,1192.16 1616.26,1197.09
             1617.37,1199.79 1616.96,1207.69 1617.00,1211.00
             1617.00,1211.00 1618.43,1227.00 1618.43,1227.00
             1618.77,1229.61 1619.56,1235.23 1618.43,1237.59
             1617.21,1240.10 1608.78,1243.24 1606.00,1244.43
             1606.00,1244.43 1572.00,1258.67 1572.00,1258.67
             1572.00,1258.67 1561.00,1266.91 1561.00,1266.91
             1549.15,1274.51 1536.15,1279.89 1523.00,1284.69
             1515.62,1287.39 1514.33,1289.89 1506.00,1290.00
             1506.00,1290.00 1498.00,1290.00 1498.00,1290.00
             1483.71,1289.83 1460.66,1284.53 1448.00,1278.02
             1444.46,1276.20 1438.48,1271.88 1435.29,1269.34
             1435.29,1269.34 1414.00,1248.39 1414.00,1248.39
             1414.00,1248.39 1396.00,1238.54 1396.00,1238.54
             1396.00,1238.54 1365.32,1215.25 1365.32,1215.25
             1365.32,1215.25 1329.00,1173.00 1329.00,1173.00
             1329.00,1173.00 1323.55,1185.00 1323.55,1185.00
             1320.01,1194.98 1315.64,1220.86 1314.28,1232.00
             1314.28,1232.00 1313.68,1239.00 1313.68,1239.00
             1313.68,1239.00 1308.74,1259.00 1308.74,1259.00
             1305.05,1274.60 1307.99,1267.00 1299.46,1281.00
             1297.29,1284.56 1296.14,1288.42 1291.96,1290.11
             1289.86,1290.96 1287.23,1290.97 1285.00,1291.00
             1272.42,1291.13 1262.29,1286.03 1252.00,1279.34
             1249.00,1277.39 1245.06,1275.49 1242.79,1272.79
             1240.63,1270.22 1236.43,1260.51 1235.02,1257.00
             1230.59,1246.01 1236.86,1231.52 1224.96,1228.19
             1223.08,1227.92 1220.00,1228.00 1218.00,1228.19
             1218.00,1228.19 1204.00,1228.19 1204.00,1228.19
             1196.69,1228.88 1195.76,1229.99 1187.00,1230.00
             1187.00,1230.00 1169.00,1230.00 1169.00,1230.00
             1154.45,1229.98 1150.34,1225.23 1138.00,1221.10
             1138.00,1221.10 1119.00,1218.55 1119.00,1218.55
             1110.16,1216.74 1102.25,1213.11 1093.00,1213.23
             1089.70,1212.96 1085.17,1212.87 1082.00,1213.23
             1069.51,1215.82 1056.03,1228.57 1038.00,1231.20
             1033.01,1231.92 1030.53,1228.63 1027.75,1225.00
             1021.14,1216.36 1018.52,1210.30 1015.58,1200.00
             1012.66,1189.79 1008.02,1181.59 1008.00,1171.00
             1008.00,1171.00 1008.00,1158.00 1008.00,1158.00
             1008.01,1150.09 1009.70,1142.76 1010.71,1135.00
             1010.71,1135.00 1011.29,1127.00 1011.29,1127.00
             1011.29,1127.00 1019.00,1095.00 1019.00,1095.00 Z" />
</svg>
