<?xml version="1.0" encoding="UTF-8" standalone="no"?>
<!DOCTYPE svg PUBLIC "-//W3C//DTD SVG 20010904//EN"
              "http://www.w3.org/TR/2001/REC-SVG-20010904/DTD/svg10.dtd">

<svg xmlns="http://www.w3.org/2000/svg"
     width="22.8229in" height="14.1042in"
     viewBox="0 0 2191 1354">
  <path id="Selection #6"
        fill="none" stroke="black" stroke-width="1"
        d="M 367.00,144.21
           C 367.00,144.21 425.00,144.21 425.00,144.21
             434.43,144.01 433.83,145.00 442.00,146.63
             442.00,146.63 453.00,148.39 453.00,148.39
             453.00,148.39 486.00,153.96 486.00,153.96
             486.00,153.96 507.00,158.54 507.00,158.54
             507.00,158.54 538.00,163.28 538.00,163.28
             538.00,163.28 551.00,165.71 551.00,165.71
             551.00,165.71 559.00,166.28 559.00,166.28
             559.00,166.28 595.00,170.00 595.00,170.00
             595.00,170.00 609.00,170.00 609.00,170.00
             609.00,170.00 641.00,172.00 641.00,172.00
             641.00,172.00 677.00,172.00 677.00,172.00
             686.60,172.02 684.04,173.20 690.00,173.87
             704.86,175.56 724.36,176.17 735.66,187.47
             743.87,195.67 745.70,208.47 749.65,219.00
             754.04,230.67 755.33,243.76 757.44,256.00
             757.44,256.00 761.58,273.00 761.58,273.00
             761.58,273.00 766.09,311.00 766.09,311.00
             766.83,320.84 771.31,322.06 770.96,333.00
             770.96,333.00 769.96,341.00 769.96,341.00
             769.96,341.00 769.96,351.00 769.96,351.00
             769.96,351.00 767.45,364.00 767.45,364.00
             767.45,364.00 766.49,371.00 766.49,371.00
             765.68,374.87 762.75,383.21 761.18,386.96
             761.18,386.96 756.80,395.04 756.80,395.04
             756.80,395.04 745.24,417.00 745.24,417.00
             745.24,417.00 731.17,440.00 731.17,440.00
             731.17,440.00 720.02,471.00 720.02,471.00
             720.02,471.00 715.03,490.00 715.03,490.00
             715.03,490.00 710.91,503.00 710.91,503.00
             710.91,503.00 707.62,515.00 707.62,515.00
             702.51,529.50 693.81,546.96 691.44,562.00
             690.08,570.63 691.91,575.26 692.00,583.00
             692.00,583.00 692.00,617.00 692.00,617.00
             692.00,617.00 691.00,632.00 691.00,632.00
             691.00,632.00 691.00,647.00 691.00,647.00
             691.00,647.00 688.74,677.00 688.74,677.00
             688.74,677.00 680.77,706.91 680.77,706.91
             680.77,706.91 677.94,713.09 677.94,713.09
             677.94,713.09 671.96,729.00 671.96,729.00
             670.19,733.01 667.71,736.72 666.61,741.00
             665.91,743.72 666.00,746.22 666.00,749.00
             666.00,749.00 666.00,782.00 666.00,782.00
             666.15,794.77 671.91,806.94 675.37,819.00
             675.37,819.00 677.54,830.96 677.54,830.96
             677.54,830.96 680.06,837.17 680.06,837.17
             683.90,848.15 691.76,868.78 698.05,878.00
             698.05,878.00 716.74,901.00 716.74,901.00
             716.74,901.00 722.34,908.99 722.34,908.99
             726.24,913.66 732.04,916.57 732.45,920.83
             732.45,920.83 728.72,933.00 728.72,933.00
             724.77,945.78 710.97,964.29 703.34,976.00
             703.34,976.00 661.61,1037.58 661.61,1037.58
             661.61,1037.58 657.96,1045.00 657.96,1045.00
             657.96,1045.00 651.66,1056.00 651.66,1056.00
             647.41,1064.49 646.37,1070.17 639.33,1077.79
             636.70,1080.65 625.55,1088.88 622.00,1090.60
             622.00,1090.60 614.00,1093.99 614.00,1093.99
             610.58,1095.99 605.85,1100.20 603.00,1103.01
             603.00,1103.01 583.87,1127.00 583.87,1127.00
             578.61,1132.85 574.08,1135.38 568.00,1139.78
             565.22,1141.80 558.72,1148.09 556.00,1148.72
             552.93,1149.43 550.52,1146.80 548.58,1144.83
             548.58,1144.83 536.72,1132.17 536.72,1132.17
             532.43,1127.77 518.27,1116.57 512.91,1112.83
             512.91,1112.83 506.00,1108.76 506.00,1108.76
             506.00,1108.76 498.00,1102.95 498.00,1102.95
             498.00,1102.95 489.00,1098.60 489.00,1098.60
             489.00,1098.60 480.00,1093.26 480.00,1093.26
             480.00,1093.26 464.00,1084.48 464.00,1084.48
             458.61,1082.57 451.71,1082.49 444.00,1079.22
             444.00,1079.22 422.91,1068.74 422.91,1068.74
             422.91,1068.74 409.00,1064.05 409.00,1064.05
             409.00,1064.05 397.00,1058.43 397.00,1058.43
             397.00,1058.43 382.00,1053.28 382.00,1053.28
             382.00,1053.28 362.83,1041.74 362.83,1041.74
             362.83,1041.74 340.00,1027.37 340.00,1027.37
             334.25,1023.25 330.11,1017.96 324.92,1013.37
             319.06,1008.21 312.42,1003.98 307.30,998.00
             307.30,998.00 283.49,966.00 283.49,966.00
             283.49,966.00 259.22,938.83 259.22,938.83
             259.22,938.83 254.79,933.09 254.79,933.09
             254.79,933.09 241.04,917.00 241.04,917.00
             241.04,917.00 233.50,906.17 233.50,906.17
             233.50,906.17 214.60,880.58 214.60,880.58
             214.60,880.58 201.92,860.00 201.92,860.00
             201.92,860.00 189.65,841.96 189.65,841.96
             189.65,841.96 175.21,816.00 175.21,816.00
             175.21,816.00 170.69,808.00 170.69,808.00
             170.69,808.00 165.26,793.00 165.26,793.00
             165.26,793.00 159.42,779.00 159.42,779.00
             152.30,760.10 148.45,748.24 136.66,731.04
             130.59,722.19 113.36,707.60 104.00,702.30
             104.00,702.30 95.00,698.37 95.00,698.37
             91.01,696.09 77.57,685.91 74.37,682.59
             67.10,675.04 60.52,665.59 56.24,656.00
             56.24,656.00 50.70,643.09 50.70,643.09
             50.70,643.09 43.84,632.00 43.84,632.00
             37.66,620.33 36.94,616.27 32.42,605.00
             32.42,605.00 28.72,596.00 28.72,596.00
             28.72,596.00 24.20,573.00 24.20,573.00
             22.10,562.34 20.02,562.15 20.00,550.00
             20.00,550.00 21.00,516.00 21.00,516.00
             21.13,508.26 22.94,509.81 23.00,501.00
             23.00,501.00 23.00,486.00 23.00,486.00
             23.00,486.00 24.00,468.00 24.00,468.00
             24.11,459.12 26.11,443.30 29.09,435.00
             32.14,426.49 40.97,409.45 46.23,402.09
             46.23,402.09 53.76,393.00 53.76,393.00
             53.76,393.00 66.58,370.00 66.58,370.00
             66.58,370.00 77.29,354.00 77.29,354.00
             77.29,354.00 81.14,345.00 81.14,345.00
             81.14,345.00 87.19,331.00 87.19,331.00
             91.23,320.66 92.46,312.78 99.77,303.17
             99.77,303.17 135.58,260.32 135.58,260.32
             135.58,260.32 170.00,232.43 170.00,232.43
             170.00,232.43 179.00,226.57 179.00,226.57
             179.00,226.57 221.00,196.71 221.00,196.71
             221.00,196.71 244.96,184.22 244.96,184.22
             244.96,184.22 269.17,171.72 269.17,171.72
             269.17,171.72 284.00,165.63 284.00,165.63
             290.24,162.56 303.72,154.81 310.00,152.93
             319.01,150.25 333.38,149.00 343.00,147.85
             343.00,147.85 351.91,146.74 351.91,146.74
             351.91,146.74 358.09,145.11 358.09,145.11
             358.09,145.11 367.00,144.21 367.00,144.21 Z" />
</svg>
