<?xml version="1.0" encoding="UTF-8" standalone="no"?>
<!DOCTYPE svg PUBLIC "-//W3C//DTD SVG 20010904//EN"
              "http://www.w3.org/TR/2001/REC-SVG-20010904/DTD/svg10.dtd">

<svg xmlns="http://www.w3.org/2000/svg"
     width="22.8229in" height="14.1042in"
     viewBox="0 0 2191 1354">
  <path id="Selection #2"
        fill="none" stroke="black" stroke-width="1"
        d="M 1363.00,1064.00
           C 1352.51,1058.24 1349.92,1051.09 1342.47,1042.17
             1342.47,1042.17 1331.29,1030.00 1331.29,1030.00
             1321.81,1019.10 1314.13,1008.41 1302.00,1000.04
             1294.67,994.98 1291.73,996.08 1284.00,992.91
             1284.00,992.91 1263.00,981.70 1263.00,981.70
             1263.00,981.70 1220.00,950.87 1220.00,950.87
             1213.14,946.97 1205.28,945.02 1198.00,941.99
             1198.00,941.99 1173.00,929.12 1173.00,929.12
             1161.82,922.63 1153.13,912.96 1144.00,904.01
             1144.00,904.01 1121.53,882.00 1121.53,882.00
             1121.53,882.00 1109.22,860.00 1109.22,860.00
             1109.22,860.00 1103.12,851.00 1103.12,851.00
             1101.59,847.06 1105.36,842.00 1108.18,839.53
             1114.39,834.08 1124.82,833.46 1132.47,823.96
             1140.17,814.41 1140.65,802.45 1142.42,791.00
             1144.53,777.45 1147.17,772.42 1147.00,758.00
             1147.00,758.00 1146.17,749.00 1146.17,749.00
             1146.17,749.00 1140.43,707.00 1140.43,707.00
             1140.43,707.00 1137.70,680.00 1137.70,680.00
             1136.36,670.99 1129.42,658.85 1133.01,650.00
             1135.16,644.69 1140.46,641.04 1145.00,637.88
             1149.32,634.89 1155.89,630.70 1161.00,629.53
             1161.00,629.53 1202.00,629.00 1202.00,629.00
             1217.33,629.02 1255.13,635.24 1272.00,637.73
             1272.00,637.73 1300.00,641.72 1300.00,641.72
             1300.00,641.72 1329.00,645.66 1329.00,645.66
             1345.10,649.15 1375.53,658.27 1390.00,665.26
             1396.96,668.62 1403.54,672.62 1410.00,676.86
             1410.00,676.86 1420.00,683.49 1420.00,683.49
             1425.74,686.41 1440.42,693.79 1445.00,697.39
             1455.43,705.58 1465.68,723.39 1464.91,737.00
             1463.99,753.23 1457.72,776.63 1454.45,793.00
             1454.45,793.00 1449.30,824.00 1449.30,824.00
             1449.30,824.00 1446.37,842.00 1446.37,842.00
             1444.20,850.48 1441.92,859.03 1438.30,867.00
             1436.88,870.13 1435.48,874.11 1432.67,876.27
             1430.14,878.21 1425.16,878.73 1422.00,879.25
             1422.00,879.25 1403.00,880.96 1403.00,880.96
             1403.00,880.96 1392.00,880.00 1392.00,880.00
             1385.68,879.93 1373.12,879.13 1368.02,882.58
             1360.29,887.81 1355.42,903.54 1364.11,910.35
             1370.14,915.08 1378.79,914.92 1386.00,915.00
             1386.00,915.00 1406.00,916.00 1406.00,916.00
             1406.00,916.00 1423.00,915.00 1423.00,915.00
             1421.37,926.58 1412.88,944.42 1409.02,957.00
             1409.02,957.00 1396.55,1001.00 1396.55,1001.00
             1396.55,1001.00 1381.84,1029.00 1381.84,1029.00
             1373.99,1045.58 1374.70,1048.34 1363.00,1064.00 Z" />
</svg>
