<?xml version="1.0" encoding="UTF-8" standalone="no"?>
<!DOCTYPE svg PUBLIC "-//W3C//DTD SVG 20010904//EN"
              "http://www.w3.org/TR/2001/REC-SVG-20010904/DTD/svg10.dtd">

<svg xmlns="http://www.w3.org/2000/svg"
     width="22.8229in" height="14.1042in"
     viewBox="0 0 2191 1354">
  <path id="Selection #7"
        fill="none" stroke="black" stroke-width="1"
        d="M 1436.00,20.90
           C 1447.87,18.98 1460.16,20.10 1472.00,20.90
             1497.52,22.66 1504.36,22.33 1530.00,28.63
             1530.00,28.63 1539.00,30.54 1539.00,30.54
             1541.68,31.27 1554.69,37.43 1556.91,39.06
             1559.32,40.82 1560.96,42.80 1563.08,44.85
             1564.33,46.04 1566.47,47.82 1567.40,49.17
             1570.06,53.06 1566.34,67.52 1566.03,73.00
             1566.03,73.00 1560.09,128.00 1560.09,128.00
             1560.09,128.00 1561.00,142.00 1561.00,142.00
             1561.19,158.16 1563.56,178.04 1566.46,194.00
             1566.46,194.00 1571.34,215.00 1571.34,215.00
             1576.23,237.56 1581.19,260.05 1588.51,282.00
             1588.51,282.00 1593.42,294.00 1593.42,294.00
             1593.42,294.00 1600.50,315.00 1600.50,315.00
             1600.50,315.00 1606.09,336.00 1606.09,336.00
             1606.09,336.00 1615.25,363.00 1615.25,363.00
             1615.25,363.00 1617.25,376.00 1617.25,376.00
             1617.25,376.00 1620.82,395.00 1620.82,395.00
             1620.82,395.00 1624.28,425.00 1624.28,425.00
             1624.28,425.00 1632.00,468.00 1632.00,468.00
             1632.00,468.00 1632.00,488.00 1632.00,488.00
             1632.00,488.00 1631.00,504.00 1631.00,504.00
             1631.00,504.00 1631.00,563.00 1631.00,563.00
             1631.00,563.00 1632.28,586.00 1632.28,586.00
             1632.28,586.00 1635.00,610.00 1635.00,610.00
             1635.15,623.51 1634.47,627.35 1629.45,640.00
             1624.54,652.37 1615.59,668.79 1606.00,677.96
             1592.24,691.11 1580.31,694.75 1563.00,700.04
             1563.00,700.04 1554.00,703.22 1554.00,703.22
             1554.00,703.22 1544.00,705.23 1544.00,705.23
             1544.00,705.23 1506.00,712.42 1506.00,712.42
             1506.00,712.42 1481.00,717.47 1481.00,717.47
             1477.98,718.22 1466.46,720.94 1464.00,720.77
             1460.29,720.51 1456.21,717.16 1453.00,715.20
             1453.00,715.20 1429.00,699.40 1429.00,699.40
             1429.00,699.40 1414.00,689.74 1414.00,689.74
             1414.00,689.74 1383.00,671.82 1383.00,671.82
             1377.95,668.99 1369.04,663.07 1364.00,661.19
             1364.00,661.19 1341.00,656.20 1341.00,656.20
             1341.00,656.20 1327.00,654.57 1327.00,654.57
             1327.00,654.57 1292.00,649.29 1292.00,649.29
             1292.00,649.29 1275.00,647.71 1275.00,647.71
             1275.00,647.71 1206.00,638.00 1206.00,638.00
             1206.00,638.00 1186.00,638.00 1186.00,638.00
             1174.87,638.02 1165.94,643.09 1156.00,647.69
             1153.00,649.08 1145.69,653.59 1143.00,653.04
             1140.23,652.47 1137.07,648.97 1135.00,647.09
             1132.20,644.56 1123.14,637.51 1120.00,635.55
             1120.00,635.55 1084.00,612.76 1084.00,612.76
             1084.00,612.76 1041.00,578.52 1041.00,578.52
             1031.64,572.30 1024.44,567.76 1014.00,563.42
             1014.00,563.42 1003.00,559.77 1003.00,559.77
             1003.00,559.77 977.00,549.69 977.00,549.69
             977.00,549.69 951.00,535.86 951.00,535.86
             951.00,535.86 916.00,517.04 916.00,517.04
             916.00,517.04 900.00,509.83 900.00,509.83
             900.00,509.83 884.00,501.31 884.00,501.31
             884.00,501.31 846.00,479.58 846.00,479.58
             846.00,479.58 834.01,472.65 834.01,472.65
             830.73,470.15 824.04,463.19 821.17,460.00
             806.99,444.28 799.27,429.06 789.14,411.00
             783.07,400.18 776.02,389.83 771.95,378.00
             771.95,378.00 769.96,370.00 769.96,370.00
             769.96,370.00 760.58,333.00 760.58,333.00
             760.58,333.00 753.09,311.00 753.09,311.00
             753.09,311.00 748.92,300.00 748.92,300.00
             741.94,274.51 740.89,259.50 737.85,234.00
             737.85,234.00 736.56,221.00 736.56,221.00
             736.56,221.00 732.46,202.00 732.46,202.00
             732.46,202.00 729.72,182.00 729.72,182.00
             729.06,176.49 728.17,164.83 731.74,160.28
             733.99,157.40 741.35,155.88 745.00,154.67
             745.00,154.67 780.00,144.56 780.00,144.56
             780.00,144.56 804.00,136.03 804.00,136.03
             804.00,136.03 830.00,128.65 830.00,128.65
             830.00,128.65 870.00,114.69 870.00,114.69
             888.99,108.07 903.05,104.45 921.00,94.15
             921.00,94.15 945.00,79.86 945.00,79.86
             945.00,79.86 980.00,62.67 980.00,62.67
             980.00,62.67 988.00,58.77 988.00,58.77
             988.00,58.77 1021.00,48.15 1021.00,48.15
             1021.00,48.15 1036.00,44.43 1036.00,44.43
             1036.00,44.43 1070.00,33.26 1070.00,33.26
             1082.67,30.84 1120.56,30.17 1135.00,30.00
             1135.00,30.00 1176.00,24.54 1176.00,24.54
             1185.28,22.80 1188.97,21.02 1199.00,21.00
             1199.00,21.00 1227.00,21.00 1227.00,21.00
             1227.00,21.00 1242.00,22.00 1242.00,22.00
             1242.00,22.00 1264.00,22.00 1264.00,22.00
             1264.00,22.00 1279.00,23.00 1279.00,23.00
             1279.00,23.00 1313.00,25.00 1313.00,25.00
             1313.00,25.00 1386.00,25.00 1386.00,25.00
             1386.00,25.00 1410.00,20.90 1410.00,20.90
             1410.00,20.90 1428.00,20.90 1428.00,20.90
             1431.69,20.98 1432.35,20.94 1436.00,20.90 Z" />
</svg>
